<?xml version="1.0" encoding="UTF-8" standalone="no"?>
<!DOCTYPE svg PUBLIC "-//W3C//DTD SVG 1.1//EN" "http://www.w3.org/Graphics/SVG/1.1/DTD/svg11.dtd">
<svg xmlns="http://www.w3.org/2000/svg" version="1.1" viewBox="0.00 0.00 512.00 512.00">
<path fill="#ffffff" d="
  M 173.83 266.97
  A 0.23 0.22 56.8 0 0 173.91 266.57
  C 138.12 239.26 116.63 198.91 116.97 153.77
  C 117.64 65.75 198.81 0.68 284.76 18.78
  C 335.91 29.55 377.34 69.65 390.23 120.25
  C 404.32 175.51 383.15 232.23 337.81 266.35
  Q 337.34 266.70 337.91 266.85
  Q 399.51 283.30 451.06 324.90
  Q 488.41 355.04 494.75 400.54
  Q 495.76 407.75 495.77 420.47
  Q 495.79 457.89 495.73 495.26
  Q 495.73 495.74 495.24 495.74
  L 16.26 495.74
  Q 15.77 495.74 15.77 495.25
  Q 15.72 459.82 15.73 424.50
  Q 15.73 410.39 16.29 404.52
  C 19.00 376.13 31.51 351.10 52.52 331.87
  C 86.54 300.74 129.40 278.61 173.83 266.97
  Z
  M 356.97 154.49
  A 101.22 101.22 0.0 0 0 255.75 53.27
  A 101.22 101.22 0.0 0 0 154.53 154.49
  A 101.22 101.22 0.0 0 0 255.75 255.71
  A 101.22 101.22 0.0 0 0 356.97 154.49
  Z
  M 82.22 355.59
  C 67.55 367.80 57.88 382.64 54.43 401.61
  Q 53.33 407.71 53.26 420.48
  Q 53.17 439.07 53.29 457.78
  Q 53.29 458.26 53.76 458.26
  L 457.98 458.26
  Q 458.26 458.26 458.26 457.97
  Q 458.23 441.26 458.26 424.50
  Q 458.28 410.25 457.48 404.53
  C 454.41 382.52 443.48 367.18 426.72 353.42
  C 371.97 308.50 302.29 289.38 231.88 295.01
  Q 146.78 301.82 82.22 355.59
  Z"
/>
</svg>
