<?xml version="1.0" encoding="UTF-8" standalone="no"?>
<!DOCTYPE svg PUBLIC "-//W3C//DTD SVG 1.1//EN" "http://www.w3.org/Graphics/SVG/1.1/DTD/svg11.dtd">
<svg xmlns="http://www.w3.org/2000/svg" version="1.1" viewBox="0.00 0.00 512.00 512.00">
<path fill="#0f0b29" d="
  M 220.24 359.48
  Q 169.57 282.55 158.44 190.84
  Q 158.38 190.32 157.85 190.39
  C 131.94 193.76 103.17 201.17 80.11 217.14
  A 0.87 0.85 -54.9 0 1 79.42 217.27
  Q 78.73 217.10 78.53 216.52
  Q 78.38 216.09 78.64 215.49
  C 79.12 214.40 79.76 213.10 80.59 212.21
  C 100.60 190.97 129.04 179.43 157.14 173.65
  Q 157.68 173.53 157.65 172.99
  C 156.27 147.61 159.71 120.01 172.67 98.64
  C 182.99 81.61 200.23 73.42 219.88 77.70
  C 238.68 81.79 255.89 95.44 268.61 109.40
  Q 291.31 134.29 306.58 164.35
  Q 306.89 164.95 306.22 164.80
  Q 289.00 160.89 271.51 158.44
  A 1.46 1.43 -15.6 0 1 270.62 157.95
  C 258.27 143.44 238.03 125.39 217.27 129.27
  C 201.11 132.30 194.04 153.36 192.51 167.80
  Q 192.45 168.31 192.96 168.28
  Q 284.31 162.47 368.04 198.45
  Q 368.49 198.64 368.68 198.19
  C 379.31 173.02 387.04 144.56 384.76 116.92
  A 1.25 1.13 56.3 0 1 384.84 116.39
  Q 385.29 115.34 386.22 115.68
  Q 386.61 115.82 386.91 116.29
  Q 388.91 119.36 389.80 122.99
  C 396.50 150.27 392.27 179.42 383.59 205.77
  Q 383.43 206.24 383.88 206.48
  C 403.41 217.14 423.21 231.38 436.19 250.30
  C 443.65 261.15 448.36 276.46 444.85 289.85
  C 436.29 322.52 393.06 335.41 364.25 339.30
  Q 340.51 342.50 316.55 341.53
  A 0.24 0.23 22.0 0 1 316.38 341.14
  Q 328.54 327.78 339.57 313.47
  A 1.44 1.40 13.7 0 1 340.47 312.94
  Q 360.86 309.61 375.81 299.88
  C 386.28 293.07 395.06 280.66 392.12 268.00
  C 389.63 257.31 379.52 246.23 370.73 239.72
  Q 370.45 239.51 370.30 239.83
  Q 329.88 322.50 256.75 378.33
  Q 256.35 378.63 256.66 379.03
  C 272.65 400.20 293.24 421.64 318.40 433.72
  A 0.99 0.99 0.0 0 1 318.60 435.37
  Q 317.39 436.38 315.24 435.92
  C 286.79 429.79 261.55 409.84 242.95 388.31
  Q 242.36 387.62 241.59 388.13
  C 222.39 400.82 195.41 412.90 171.92 412.04
  C 135.59 410.72 122.69 381.20 126.49 348.99
  C 130.17 317.88 143.88 287.30 159.96 261.71
  Q 160.32 261.13 160.53 261.79
  Q 165.72 278.85 172.42 295.39
  Q 172.61 295.86 172.46 296.35
  C 167.27 312.53 162.54 332.58 169.28 348.96
  C 178.26 370.76 202.27 367.84 220.11 359.92
  Q 220.44 359.78 220.24 359.48
  Z
  M 238.70 351.29
  C 287.29 323.07 328.29 278.76 354.52 228.78
  A 0.55 0.54 -61.0 0 0 354.32 228.06
  C 305.92 199.16 247.25 185.78 191.14 187.68
  Q 190.58 187.70 190.58 188.26
  C 190.09 244.83 208.04 303.19 237.51 351.00
  Q 237.96 351.72 238.70 351.29
  Z"
/>
</svg>
