<?xml version="1.0" encoding="UTF-8" standalone="no"?>
<!DOCTYPE svg PUBLIC "-//W3C//DTD SVG 1.1//EN" "http://www.w3.org/Graphics/SVG/1.1/DTD/svg11.dtd">
<svg xmlns="http://www.w3.org/2000/svg" version="1.1" viewBox="0.00 0.00 512.00 512.00">
<path fill="#0f0b29" d="
  M 32.02 0.00
  L 480.01 0.00
  L 439.17 460.38
  A 0.70 0.69 84.6 0 1 438.67 460.99
  L 256.32 512.00
  L 255.61 512.00
  L 73.35 460.90
  Q 72.83 460.75 72.78 460.20
  L 32.02 0.00
  Z
  M 336.36 146.97
  A 0.36 0.36 0.0 0 1 336.72 147.36
  L 332.52 204.08
  A 0.36 0.36 0.0 0 1 332.17 204.41
  L 123.87 206.84
  A 0.36 0.36 0.0 0 0 123.51 207.23
  L 129.06 260.18
  A 0.36 0.36 0.0 0 0 129.42 260.50
  L 327.35 259.96
  A 0.36 0.36 0.0 0 1 327.71 260.36
  L 319.16 338.17
  A 0.36 0.36 0.0 0 1 318.89 338.47
  L 255.94 355.45
  A 0.36 0.36 0.0 0 1 255.76 355.45
  L 193.11 338.54
  A 0.36 0.36 0.0 0 1 192.85 338.22
  L 188.66 291.70
  A 0.36 0.36 0.0 0 0 188.30 291.37
  L 132.20 291.37
  A 0.36 0.36 0.0 0 0 131.85 291.76
  L 139.92 381.87
  A 0.36 0.36 0.0 0 0 140.18 382.19
  L 255.81 414.21
  A 0.36 0.36 0.0 0 0 256.01 414.21
  L 371.86 382.22
  A 0.36 0.36 0.0 0 0 372.12 381.90
  L 397.79 94.62
  A 0.36 0.36 0.0 0 0 397.44 94.23
  L 114.58 94.23
  A 0.36 0.36 0.0 0 0 114.22 94.61
  L 117.82 147.25
  A 0.36 0.36 0.0 0 0 118.18 147.59
  L 336.36 146.97
  Z"
/>
</svg>
