<?xml version="1.0" encoding="UTF-8" standalone="no"?>
<!DOCTYPE svg PUBLIC "-//W3C//DTD SVG 1.1//EN" "http://www.w3.org/Graphics/SVG/1.1/DTD/svg11.dtd">
<svg xmlns="http://www.w3.org/2000/svg" version="1.1" viewBox="0.00 0.00 512.00 512.00">
<path fill="#0f0b29" d="
  M 75.32 0.00
  L 436.75 0.00
  C 462.01 1.61 483.73 18.97 489.29 43.61
  Q 490.70 49.85 490.69 63.50
  Q 490.68 287.58 490.69 511.47
  A 0.25 0.25 0.0 0 1 490.28 511.66
  C 468.56 493.48 446.17 475.70 425.14 456.74
  Q 396.22 430.66 366.51 405.59
  A 0.18 0.17 11.6 0 0 366.23 405.77
  L 380.50 451.96
  A 0.19 0.19 0.0 0 1 380.32 452.20
  Q 228.91 452.23 77.50 452.32
  C 46.79 452.34 21.57 430.59 21.53 399.00
  Q 21.31 226.25 21.31 53.50
  C 21.31 23.35 45.76 1.66 75.32 0.00
  Z
  M 362.14 157.76
  C 294.14 124.58 216.58 123.76 148.21 156.43
  A 0.17 0.17 0.0 0 1 148.03 156.14
  C 167.55 140.20 191.69 130.06 216.10 124.36
  Q 216.69 124.22 216.37 123.72
  C 215.24 121.94 214.03 121.09 211.74 121.21
  C 186.14 122.54 161.32 132.26 140.50 146.99
  Q 138.59 148.34 137.48 150.43
  C 113.65 195.14 100.31 246.42 99.40 296.94
  A 3.58 3.57 27.4 0 0 100.09 299.11
  C 118.32 324.05 149.85 336.19 180.00 336.49
  Q 180.53 336.49 180.86 336.09
  L 197.60 315.59
  A 0.35 0.34 -61.8 0 0 197.44 315.04
  C 179.67 309.42 164.02 300.45 152.03 285.95
  A 0.15 0.14 -6.3 0 1 152.21 285.73
  C 168.32 293.53 185.79 301.08 202.79 306.04
  C 255.06 321.30 312.09 314.13 358.40 285.05
  Q 362.19 282.67 359.20 286.00
  C 346.79 299.85 331.36 308.13 313.62 313.53
  Q 312.82 313.78 313.35 314.43
  L 329.62 334.54
  Q 329.94 334.94 330.45 334.94
  Q 380.36 334.29 413.72 298.19
  Q 414.10 297.79 414.09 297.24
  C 413.79 246.65 399.46 195.52 376.10 150.84
  Q 375.00 148.73 373.12 147.37
  Q 341.09 124.19 301.31 121.39
  Q 300.80 121.36 300.43 121.72
  L 297.08 125.04
  Q 296.55 125.56 297.26 125.75
  C 319.99 132.12 343.90 142.52 362.30 157.49
  Q 363.37 158.36 362.14 157.76
  Z"
/>
<ellipse fill="#0f0b29" cx="0.00" cy="0.00" transform="translate(206.73,243.92) rotate(91.3)" rx="28.50" ry="27.50"/>
<ellipse fill="#0f0b29" cx="0.00" cy="0.00" transform="translate(305.25,243.92) rotate(91.4)" rx="28.49" ry="27.49"/>
</svg>
