<?xml version="1.0" encoding="UTF-8" standalone="no"?>
<!DOCTYPE svg PUBLIC "-//W3C//DTD SVG 1.1//EN" "http://www.w3.org/Graphics/SVG/1.1/DTD/svg11.dtd">
<svg xmlns="http://www.w3.org/2000/svg" version="1.1" viewBox="0.00 0.00 512.00 512.00">
<path fill="#0f0b29" d="
  M 30.04 0.00
  L 482.23 0.00
  L 450.41 447.63
  A 0.66 0.64 83.6 0 1 449.96 448.21
  L 256.34 512.00
  L 255.85 512.00
  L 62.43 448.21
  Q 61.92 448.04 61.88 447.51
  L 30.04 0.00
  Z
  M 175.12 135.36
  A 0.34 0.34 0.0 0 1 175.45 135.00
  L 397.03 135.00
  A 0.34 0.34 0.0 0 0 397.37 134.68
  L 401.60 75.36
  A 0.34 0.34 0.0 0 0 401.26 75.00
  L 110.95 75.00
  A 0.34 0.34 0.0 0 0 110.62 75.36
  L 124.39 271.68
  A 0.34 0.34 0.0 0 0 124.73 272.00
  L 327.14 272.00
  A 0.34 0.34 0.0 0 1 327.47 272.36
  L 322.14 348.27
  A 0.34 0.34 0.0 0 1 321.90 348.57
  L 256.23 370.37
  A 0.34 0.34 0.0 0 1 256.01 370.37
  L 190.34 348.57
  A 0.34 0.34 0.0 0 1 190.10 348.27
  L 188.93 332.32
  A 0.34 0.34 0.0 0 0 188.59 332.00
  L 129.27 332.00
  A 0.34 0.34 0.0 0 0 128.94 332.36
  L 133.07 392.36
  A 0.34 0.34 0.0 0 0 133.31 392.66
  L 256.01 433.65
  A 0.34 0.34 0.0 0 0 256.23 433.65
  L 378.91 392.66
  A 0.34 0.34 0.0 0 0 379.15 392.36
  L 391.97 212.36
  A 0.34 0.34 0.0 0 0 391.63 212.00
  L 180.82 212.00
  A 0.34 0.34 0.0 0 1 180.48 211.68
  L 175.12 135.36
  Z"
/>
</svg>
