<?xml version="1.0" encoding="UTF-8" standalone="no"?>
<!DOCTYPE svg PUBLIC "-//W3C//DTD SVG 1.1//EN" "http://www.w3.org/Graphics/SVG/1.1/DTD/svg11.dtd">
<svg xmlns="http://www.w3.org/2000/svg" version="1.1" viewBox="0.00 0.00 512.00 512.00">
<path fill="#ffffff" d="
  M 0.00 0.00
  L 143.00 0.00
  Q 144.00 0.31 144.00 2.25
  Q 144.01 72.98 144.00 143.45
  A 0.53 0.53 0.0 0 1 143.46 143.98
  L 0.00 143.94
  L 0.00 0.00
  Z"
/>
<path fill="#ffffff" d="
  M 184.04 0.00
  L 327.00 0.00
  L 327.47 0.28
  Q 328.00 0.59 328.00 1.20
  L 328.00 143.50
  A 0.50 0.50 0.0 0 1 327.50 144.00
  L 184.74 144.00
  A 0.73 0.73 0.0 0 1 184.01 143.27
  L 184.04 0.00
  Z"
/>
<path fill="#ffffff" d="
  M 368.04 0.00
  L 512.00 0.00
  L 512.00 143.97
  L 368.50 143.97
  A 0.49 0.49 0.0 0 1 368.01 143.48
  L 368.04 0.00
  Z"
/>
<path fill="#ffffff" d="
  M 0.00 327.91
  L 0.00 184.48
  Q 1.74 184.01 4.50 184.00
  Q 73.98 183.99 143.27 184.01
  A 0.73 0.73 0.0 0 1 144.00 184.74
  L 144.00 327.47
  Q 144.00 327.95 143.52 327.95
  L 0.00 327.91
  Z"
/>
<rect fill="#ffffff" x="184.00" y="184.00" width="144.00" height="144.00" rx="0.83"/>
<path fill="#ffffff" d="
  M 512.00 184.02
  L 512.00 327.97
  L 368.47 327.97
  A 0.47 0.47 0.0 0 1 368.00 327.50
  L 368.00 184.74
  A 0.73 0.73 0.0 0 1 368.73 184.01
  L 512.00 184.02
  Z"
/>
<path fill="#ffffff" d="
  M 143.99 512.00
  L 0.00 512.00
  L 0.00 368.48
  Q 1.74 368.01 4.50 368.00
  Q 74.00 367.99 143.33 368.01
  A 0.67 0.67 0.0 0 1 144.00 368.68
  L 143.99 512.00
  Z"
/>
<path fill="#ffffff" d="
  M 327.99 512.00
  L 184.01 512.00
  L 184.00 368.60
  Q 184.00 368.00 184.37 368.00
  L 327.28 368.00
  A 0.72 0.71 -0.0 0 1 328.00 368.71
  L 327.99 512.00
  Z"
/>
<path fill="#ffffff" d="
  M 512.00 368.02
  L 512.00 512.00
  L 368.01 512.00
  L 368.00 368.70
  A 0.70 0.69 0.0 0 1 368.70 368.01
  L 512.00 368.02
  Z"
/>
</svg>
