<?xml version="1.0" encoding="UTF-8" standalone="no"?>
<!DOCTYPE svg PUBLIC "-//W3C//DTD SVG 1.1//EN" "http://www.w3.org/Graphics/SVG/1.1/DTD/svg11.dtd">
<svg xmlns="http://www.w3.org/2000/svg" version="1.1" viewBox="0.00 0.00 400.00 170.00">
<path fill="#0f0b29" d="
  M 37.12 119.12
  Q 36.65 142.25 14.54 150.00
  A 0.57 0.57 0.0 0 1 13.93 149.83
  L 7.48 142.24
  Q 7.17 141.87 7.59 141.63
  C 21.57 133.74 22.28 124.55 22.27 108.75
  Q 22.25 70.46 22.24 32.04
  Q 22.24 31.75 22.53 31.75
  L 36.71 31.75
  Q 37.16 31.75 37.17 32.20
  Q 37.49 101.68 37.12 119.12
  Z"
/>
<path fill="#0f0b29" d="
  M 268.01 72.00
  L 302.88 72.00
  A 1.35 1.34 -17.1 0 1 303.99 72.58
  L 314.11 86.87
  Q 314.56 87.50 313.79 87.50
  L 264.54 87.50
  Q 264.06 87.50 263.97 87.96
  L 256.27 124.54
  Q 256.18 125.00 255.71 125.00
  L 239.77 125.00
  Q 239.11 125.00 239.25 124.35
  Q 251.35 66.13 254.96 50.27
  Q 257.95 37.12 269.00 33.25
  Q 273.44 31.69 285.63 31.73
  Q 306.57 31.79 327.47 31.73
  A 0.42 0.42 0.0 0 1 327.88 32.24
  L 324.73 47.25
  Q 324.63 47.74 324.13 47.74
  Q 301.68 47.76 279.24 47.77
  C 272.18 47.77 271.61 52.79 270.17 59.18
  Q 268.79 65.30 267.58 71.47
  Q 267.47 72.00 268.01 72.00
  Z"
/>
<path fill="#0f0b29" d="
  M 88.83 118.48
  Q 75.22 130.37 58.68 125.45
  C 51.18 123.22 47.70 116.12 47.31 108.55
  C 46.21 86.66 70.11 83.40 86.82 84.06
  Q 87.30 84.08 87.34 83.60
  C 88.06 74.82 86.93 66.54 76.96 65.86
  Q 65.03 65.04 53.54 69.63
  A 0.48 0.47 72.1 0 1 52.90 69.30
  L 51.00 61.30
  Q 50.87 60.77 51.38 60.54
  C 65.08 54.33 94.04 49.37 100.53 67.71
  Q 101.71 71.07 101.73 78.39
  Q 101.79 101.58 101.74 124.74
  Q 101.74 125.25 101.22 125.25
  L 90.97 125.26
  Q 90.43 125.26 90.35 124.71
  L 89.49 118.72
  Q 89.38 118.00 88.83 118.48
  Z
  M 87.07 93.34
  C 78.11 92.68 60.00 92.52 61.82 106.78
  C 63.70 121.56 80.46 115.89 87.17 109.25
  Q 87.50 108.93 87.50 108.47
  L 87.50 93.79
  Q 87.50 93.37 87.07 93.34
  Z"
/>
<path fill="#0f0b29" d="
  M 217.57 118.56
  Q 215.22 120.19 212.81 121.74
  Q 199.26 130.49 185.02 124.50
  C 174.74 120.18 173.97 104.72 178.82 96.50
  C 185.85 84.60 203.32 83.47 215.36 84.07
  Q 215.99 84.10 216.00 83.47
  Q 216.06 81.01 215.92 76.51
  C 215.40 59.98 190.94 66.30 182.15 69.53
  A 0.56 0.56 0.0 0 1 181.41 69.13
  L 179.58 61.24
  Q 179.47 60.79 179.90 60.59
  C 193.53 54.34 222.68 49.32 229.11 67.73
  Q 230.24 70.95 230.25 77.89
  Q 230.27 101.33 230.24 124.74
  Q 230.24 125.25 229.73 125.25
  L 219.53 125.26
  Q 219.05 125.26 218.97 124.78
  L 218.08 118.78
  Q 218.00 118.26 217.57 118.56
  Z
  M 200.01 94.33
  C 194.40 95.77 190.28 98.71 190.22 104.75
  Q 190.13 114.42 198.00 115.83
  C 204.28 116.95 211.02 113.73 215.70 109.38
  Q 216.01 109.10 216.01 108.68
  L 216.01 94.03
  Q 216.01 93.57 215.55 93.51
  Q 207.59 92.40 200.01 94.33
  Z"
/>
<path fill="#0f0b29" d="
  M 389.20 60.48
  L 389.13 62.72
  A 0.55 0.54 -0.0 0 1 388.59 63.25
  Q 388.34 63.25 388.08 63.25
  Q 387.70 63.25 387.71 62.88
  L 387.87 57.01
  A 1.00 1.00 0.0 0 1 389.81 56.69
  L 390.94 59.72
  Q 391.44 61.05 391.79 59.67
  Q 392.04 58.67 392.18 57.73
  Q 392.32 56.72 392.75 56.41
  Q 393.30 56.02 394.14 56.31
  Q 394.51 56.44 394.51 56.83
  L 394.49 63.03
  A 0.51 0.51 0.0 0 1 393.48 63.15
  L 392.93 60.75
  A 0.35 0.35 0.0 0 0 392.25 60.76
  L 391.87 62.65
  Q 391.79 63.07 391.38 63.19
  Q 390.63 63.42 390.48 62.77
  Q 390.15 61.36 389.70 60.38
  A 0.26 0.26 0.0 0 0 389.20 60.48
  Z"
/>
<path fill="#0f0b29" d="
  M 141.23 110.01
  A 0.24 0.23 -42.0 0 0 141.68 110.03
  Q 151.00 84.12 154.86 56.85
  Q 154.95 56.25 155.55 56.24
  L 169.46 56.24
  Q 170.12 56.24 170.01 56.88
  Q 163.89 92.17 149.19 124.80
  Q 148.98 125.25 148.48 125.25
  L 131.50 125.26
  Q 130.95 125.26 130.79 124.73
  L 109.90 56.77
  Q 109.74 56.24 110.29 56.24
  L 124.96 56.24
  Q 125.43 56.24 125.57 56.69
  Q 131.66 76.19 137.67 95.70
  C 139.08 100.26 140.07 105.23 141.23 110.01
  Z"
/>
<path fill="#0f0b29" d="
  M 334.17 102.44
  L 312.81 124.88
  A 0.40 0.40 0.0 0 1 312.52 125.00
  L 291.48 125.00
  A 0.40 0.40 0.0 0 1 291.19 124.32
  L 325.03 88.86
  A 0.40 0.40 0.0 0 0 325.07 88.35
  L 303.40 56.87
  A 0.40 0.40 0.0 0 1 303.73 56.24
  L 321.68 56.25
  A 0.40 0.40 0.0 0 1 322.01 56.42
  L 335.95 76.68
  A 0.40 0.40 0.0 0 0 336.57 76.73
  L 355.97 56.37
  A 0.40 0.40 0.0 0 1 356.26 56.25
  L 377.30 56.25
  A 0.40 0.40 0.0 0 1 377.59 56.93
  L 345.72 90.32
  A 0.40 0.40 0.0 0 0 345.68 90.83
  L 368.79 124.37
  A 0.40 0.40 0.0 0 1 368.46 125.00
  L 350.49 125.00
  A 0.40 0.40 0.0 0 1 350.16 124.83
  L 334.79 102.49
  A 0.40 0.40 0.0 0 0 334.17 102.44
  Z"
/>
<path fill="#0f0b29" d="
  M 385.50 58.49
  L 385.50 62.71
  Q 385.50 63.15 385.07 63.26
  Q 384.53 63.40 384.23 63.06
  Q 384.04 62.85 384.04 62.39
  Q 384.03 60.33 384.03 58.25
  Q 384.03 57.76 383.53 57.69
  L 382.40 57.53
  A 0.60 0.60 0.0 0 1 382.46 56.33
  L 386.59 56.22
  A 0.65 0.65 0.0 0 1 386.89 57.45
  L 385.83 57.96
  Q 385.50 58.12 385.50 58.49
  Z"
/>
</svg>
