<?xml version="1.0" encoding="UTF-8" standalone="no"?>
<!DOCTYPE svg PUBLIC "-//W3C//DTD SVG 1.1//EN" "http://www.w3.org/Graphics/SVG/1.1/DTD/svg11.dtd">
<svg xmlns="http://www.w3.org/2000/svg" version="1.1" viewBox="0.00 0.00 512.00 512.00">
<path fill="#0f0b29" d="
  M 303.89 0.00
  L 306.42 0.00
  Q 319.60 17.77 321.97 41.00
  C 325.30 73.57 306.46 97.88 283.43 118.07
  Q 268.02 131.58 252.06 144.43
  Q 247.24 148.31 243.35 152.00
  C 234.05 160.83 222.31 169.89 222.73 184.15
  Q 223.15 198.21 226.43 211.38
  Q 234.16 242.42 248.82 271.69
  C 249.32 272.69 249.77 274.79 249.33 275.84
  C 247.48 280.16 244.05 278.81 241.19 276.45
  C 211.21 251.74 168.49 203.61 188.98 161.16
  Q 199.26 139.86 216.96 123.46
  C 232.09 109.44 248.81 98.21 265.36 86.36
  C 274.33 79.93 285.17 71.38 290.49 61.54
  Q 304.62 35.42 300.67 4.24
  Q 300.35 1.68 303.89 0.00
  Z"
/>
<path fill="#0f0b29" d="
  M 308.18 152.17
  C 296.23 163.65 282.45 181.23 293.60 198.42
  C 302.08 211.49 307.81 219.09 311.40 230.45
  C 315.64 243.86 313.92 256.69 306.37 268.70
  Q 296.02 285.18 280.71 296.28
  C 279.70 297.02 278.87 297.25 277.68 297.51
  A 1.50 1.47 -39.4 0 1 276.79 297.43
  C 272.84 295.81 273.50 292.65 275.02 289.27
  Q 279.47 279.37 281.42 267.49
  Q 282.76 259.29 278.16 253.10
  Q 272.19 245.06 266.28 237.00
  Q 251.26 216.52 250.86 190.00
  C 250.73 181.72 252.63 176.42 256.30 169.60
  C 262.93 157.25 276.83 145.56 288.40 137.88
  Q 318.47 117.93 349.75 106.23
  C 352.85 105.07 355.60 109.03 354.45 111.84
  Q 353.93 113.11 351.65 114.84
  Q 329.57 131.62 308.18 152.17
  Z"
/>
<path fill="#0f0b29" d="
  M 444.94 306.53
  C 453.22 349.02 394.32 370.48 363.51 377.62
  Q 363.00 377.74 361.69 377.26
  C 356.74 375.44 359.22 370.89 362.23 368.79
  C 379.13 357.01 399.62 340.88 410.26 322.29
  Q 416.98 310.57 408.25 299.82
  Q 405.46 296.39 398.24 292.97
  Q 387.39 287.84 372.25 287.29
  C 369.53 287.19 367.00 286.63 366.37 283.89
  C 365.81 281.46 367.46 279.73 369.65 278.69
  C 386.45 270.67 409.91 264.81 426.97 275.85
  C 437.43 282.62 442.56 294.29 444.94 306.53
  Z"
/>
<path fill="#0f0b29" d="
  M 150.97 300.53
  C 165.40 304.22 181.15 305.01 196.00 305.48
  C 232.07 306.62 268.54 305.77 304.47 302.45
  Q 328.45 300.24 355.00 294.50
  C 359.33 293.56 361.43 299.39 358.21 301.97
  Q 353.01 306.14 344.04 310.54
  C 320.04 322.29 293.18 328.39 266.73 331.23
  Q 216.19 336.66 165.69 331.86
  C 150.53 330.41 103.30 323.92 106.86 300.57
  C 110.30 277.95 176.51 276.45 193.26 276.78
  C 196.86 276.85 197.48 282.17 194.93 284.11
  Q 193.87 284.91 190.92 285.49
  Q 173.55 288.89 156.30 296.30
  Q 152.98 297.72 150.80 299.89
  Q 150.32 300.36 150.97 300.53
  Z"
/>
<path fill="#0f0b29" d="
  M 170.37 349.51
  Q 172.39 350.80 175.13 351.37
  Q 189.28 354.31 203.76 355.08
  Q 262.46 358.19 319.53 344.24
  Q 321.17 343.84 323.25 345.29
  Q 333.32 352.32 343.31 359.46
  C 347.10 362.16 345.29 366.17 341.26 367.14
  Q 291.32 379.25 241.01 382.73
  Q 205.46 385.19 170.76 376.38
  C 161.90 374.13 140.62 367.19 142.68 354.24
  C 144.43 343.25 163.85 338.53 172.53 336.17
  C 176.31 335.15 179.39 339.02 177.24 342.29
  Q 176.65 343.18 174.42 344.37
  Q 171.95 345.68 170.13 347.73
  A 1.18 1.18 0.0 0 0 170.37 349.51
  Z"
/>
<path fill="#0f0b29" d="
  M 188.13 399.11
  Q 192.25 400.58 194.94 401.08
  C 220.60 405.93 247.79 407.62 273.64 403.51
  Q 290.15 400.89 306.40 398.07
  A 4.06 4.05 -34.2 0 1 309.20 398.60
  Q 322.06 406.44 335.04 414.46
  C 338.72 416.74 337.65 420.80 334.03 422.34
  C 291.06 440.66 240.89 441.81 195.53 433.78
  C 184.38 431.81 168.16 427.91 160.83 418.76
  C 156.93 413.88 155.78 407.28 158.68 401.74
  C 163.04 393.41 175.92 390.03 184.70 389.88
  C 188.18 389.83 190.93 390.95 190.21 394.95
  Q 190.13 395.45 189.82 395.84
  L 187.90 398.33
  Q 187.48 398.88 188.13 399.11
  Z"
/>
<path fill="#0f0b29" d="
  M 104.54 447.78
  C 110.80 451.78 121.54 453.57 130.28 455.03
  Q 172.35 462.04 215.00 463.06
  Q 281.86 464.66 347.98 454.64
  C 355.23 453.54 407.59 445.24 407.39 437.28
  C 407.36 435.71 405.62 433.82 405.88 432.50
  C 406.72 428.22 410.21 427.60 413.41 430.00
  C 424.97 438.66 421.15 451.37 409.80 457.51
  Q 396.40 464.75 381.72 468.96
  C 344.46 479.65 305.12 483.98 266.50 485.67
  Q 209.60 488.17 152.76 484.55
  Q 125.91 482.84 105.76 478.76
  C 92.40 476.06 63.83 468.67 66.25 449.73
  C 68.97 428.50 129.01 426.85 144.99 425.67
  Q 146.36 425.56 147.56 426.88
  C 150.98 430.63 147.32 433.80 143.64 434.43
  Q 125.03 437.58 107.56 444.74
  Q 106.14 445.32 104.46 447.11
  Q 104.10 447.50 104.54 447.78
  Z"
/>
<path fill="#0f0b29" d="
  M 278.37 512.00
  L 265.92 512.00
  Q 203.70 511.31 142.74 499.29
  C 138.80 498.52 137.67 493.06 141.40 491.33
  Q 142.74 490.70 145.68 490.82
  Q 222.24 493.96 294.44 492.43
  Q 313.77 492.02 335.77 490.26
  C 367.32 487.75 400.89 480.12 427.88 462.58
  C 430.13 461.11 434.83 455.87 437.96 456.45
  C 445.11 457.76 438.64 469.16 436.60 472.12
  C 423.36 491.28 398.14 499.31 376.17 503.11
  Q 327.72 511.51 278.37 512.00
  Z"
/>
</svg>
