<?xml version="1.0" encoding="UTF-8" standalone="no"?>
<!DOCTYPE svg PUBLIC "-//W3C//DTD SVG 1.1//EN" "http://www.w3.org/Graphics/SVG/1.1/DTD/svg11.dtd">
<svg xmlns="http://www.w3.org/2000/svg" version="1.1" viewBox="0.00 0.00 512.00 512.00">
<path fill="#0f0b29" d="
  M 0.00 0.00
  L 512.00 0.00
  L 512.00 512.00
  L 0.00 512.00
  L 0.00 0.00
  Z
  M 367.12 291.12
  C 368.56 283.89 373.42 277.73 380.49 275.72
  Q 400.89 269.90 414.24 285.41
  C 416.38 287.89 418.43 291.27 420.30 294.35
  Q 420.65 294.93 421.22 294.56
  L 457.50 271.26
  Q 457.93 270.99 457.69 270.54
  Q 446.72 249.64 426.34 239.68
  C 414.65 233.97 401.48 232.26 388.26 232.40
  C 343.74 232.89 312.60 264.65 320.41 309.94
  C 324.82 335.52 342.19 351.83 364.60 362.65
  C 378.90 369.55 395.98 375.68 410.98 384.32
  C 418.48 388.63 423.53 395.13 423.95 403.99
  C 424.95 424.77 402.20 430.37 386.24 428.95
  C 366.59 427.19 354.06 416.50 344.24 400.44
  Q 343.97 399.99 343.51 400.26
  L 305.25 422.47
  A 0.52 0.52 0.0 0 0 305.05 423.16
  C 317.94 447.56 339.04 462.97 365.63 468.95
  C 408.75 478.64 467.02 465.66 471.84 411.99
  C 476.76 357.20 434.62 340.26 393.25 322.74
  C 378.89 316.66 363.63 308.66 367.12 291.12
  Z
  M 198.59 428.21
  C 186.60 425.37 180.03 415.62 174.31 404.69
  A 0.58 0.57 60.3 0 0 173.50 404.46
  L 135.17 427.66
  A 0.43 0.42 -28.3 0 0 135.00 428.20
  C 152.79 465.72 192.46 478.56 230.93 468.90
  C 265.57 460.21 278.77 432.44 278.79 398.74
  Q 278.86 317.23 278.80 235.62
  Q 278.80 235.04 278.22 235.04
  L 231.26 235.04
  Q 230.74 235.04 230.74 235.56
  Q 230.73 316.43 230.73 397.29
  C 230.73 408.90 229.42 422.38 216.77 427.18
  Q 208.13 430.46 198.59 428.21
  Z"
/>
</svg>
