<?xml version="1.0" encoding="UTF-8" standalone="no"?>
<!DOCTYPE svg PUBLIC "-//W3C//DTD SVG 1.1//EN" "http://www.w3.org/Graphics/SVG/1.1/DTD/svg11.dtd">
<svg xmlns="http://www.w3.org/2000/svg" version="1.1" viewBox="0.00 0.00 512.00 512.00">
<path fill="#0f0b29" d="
  M 365.36 0.00
  L 377.02 0.00
  C 419.67 1.70 456.44 16.36 485.07 48.18
  Q 496.48 60.85 499.14 76.40
  C 500.54 84.53 501.00 95.95 500.31 105.01
  Q 498.03 135.16 489.38 165.99
  Q 468.43 240.67 426.41 305.60
  A 0.80 0.79 -61.9 0 0 426.76 306.77
  C 441.87 313.23 461.98 310.29 477.58 307.07
  C 483.44 305.87 488.74 304.94 493.50 305.98
  C 500.89 307.59 504.97 314.88 502.18 322.02
  C 499.94 327.76 494.51 333.26 489.74 336.99
  C 465.10 356.31 431.70 361.93 401.80 357.45
  C 399.47 357.10 397.97 357.43 397.68 359.99
  Q 393.63 395.43 388.82 430.76
  C 385.22 457.19 380.22 486.38 353.79 500.12
  Q 334.75 510.01 311.21 512.00
  L 303.66 512.00
  C 287.86 510.97 275.13 504.13 265.47 491.44
  Q 254.64 477.21 251.87 460.01
  Q 248.81 441.04 247.95 413.50
  Q 247.17 388.43 247.51 363.92
  Q 247.52 363.06 246.85 363.59
  C 228.17 378.34 207.02 383.29 183.91 379.10
  C 173.29 377.18 156.76 372.79 152.77 361.55
  C 146.36 343.49 175.76 339.55 186.24 337.26
  C 194.25 335.51 200.90 333.07 206.01 326.74
  Q 209.67 322.20 213.20 317.54
  Q 213.58 317.04 212.96 317.01
  Q 197.86 316.35 184.55 309.28
  Q 184.06 309.03 183.69 309.43
  Q 156.09 339.02 142.76 355.74
  C 135.43 364.94 124.59 373.09 112.68 373.17
  C 94.67 373.31 80.52 356.64 71.91 342.80
  Q 58.83 321.77 50.97 301.25
  Q 23.64 229.94 11.24 151.64
  C 8.15 132.08 8.11 112.08 11.00 92.75
  C 26.19 -8.55 130.35 -3.11 202.52 23.55
  A 1.02 1.01 38.0 0 0 203.44 23.44
  C 234.53 2.70 269.49 3.52 304.65 9.80
  Q 306.74 10.18 308.79 9.56
  Q 336.37 1.16 365.36 0.00
  Z
  M 422.80 206.49
  C 426.27 235.14 429.59 262.10 414.18 287.87
  Q 413.89 288.35 414.25 288.79
  L 416.12 291.09
  Q 416.52 291.58 416.86 291.04
  Q 454.10 231.93 473.47 164.76
  Q 481.54 136.75 484.34 107.74
  C 485.45 96.32 485.71 84.10 482.61 72.95
  C 481.07 67.41 478.61 64.13 474.88 59.86
  C 456.39 38.71 433.28 25.02 406.03 19.43
  Q 370.04 12.05 333.69 19.88
  Q 333.23 19.98 333.65 20.19
  C 375.65 40.47 408.02 77.05 423.82 120.69
  Q 427.01 129.47 426.98 132.75
  Q 426.87 148.79 424.61 164.63
  C 422.16 181.87 421.03 191.89 422.80 206.49
  Z
  M 241.31 273.06
  Q 234.81 288.20 229.99 304.05
  Q 229.80 304.67 230.44 304.59
  C 245.23 302.79 257.65 312.42 261.69 326.12
  C 263.77 333.17 262.94 342.19 262.77 350.10
  Q 262.71 352.62 263.62 355.24
  C 268.10 368.10 269.21 383.23 269.67 396.75
  C 270.16 411.04 268.51 430.47 269.51 444.00
  C 270.40 456.04 273.01 464.20 277.58 476.50
  C 285.18 497.01 301.34 497.97 320.10 493.89
  C 343.35 488.82 362.34 475.57 367.72 450.99
  Q 369.42 443.23 370.23 431.24
  Q 370.60 425.79 374.25 413.51
  Q 375.59 409.00 375.66 400.23
  C 375.69 396.65 376.95 393.89 378.00 390.59
  Q 379.11 387.08 379.54 383.26
  Q 381.75 363.60 384.08 343.95
  Q 384.37 341.43 384.36 335.55
  C 384.34 320.79 391.15 307.75 406.30 304.35
  A 0.70 0.70 0.0 0 0 406.66 303.19
  Q 396.11 291.78 389.05 277.85
  Q 382.91 265.72 382.85 265.62
  C 367.27 236.96 329.52 174.01 353.61 142.04
  C 365.78 125.90 390.85 124.36 409.22 126.60
  A 0.58 0.58 0.0 0 0 409.83 125.82
  C 384.48 59.61 323.29 13.08 250.09 22.82
  C 235.10 24.82 222.20 29.72 210.14 38.19
  C 207.81 39.82 204.41 41.31 201.93 43.70
  C 176.24 68.46 164.43 106.29 162.17 141.57
  Q 162.14 142.14 162.65 141.88
  C 187.68 128.88 228.23 116.93 245.32 147.88
  Q 248.96 154.48 251.35 166.63
  C 257.12 196.01 258.84 225.88 249.00 254.61
  Q 248.10 257.24 241.31 273.06
  Z
  M 187.90 35.81
  C 155.33 25.08 117.06 18.55 83.52 27.03
  C 27.12 41.30 19.08 103.40 26.79 151.13
  Q 37.84 219.62 61.11 285.04
  C 67.82 303.89 87.87 352.75 108.94 357.04
  C 117.43 358.76 125.64 351.78 130.77 345.22
  Q 141.64 331.32 170.57 300.18
  Q 170.97 299.76 170.54 299.37
  Q 143.87 274.96 144.02 238.26
  Q 144.03 234.28 145.27 224.72
  C 147.70 206.07 147.70 187.09 146.66 168.34
  Q 145.94 155.35 146.26 148.64
  C 148.20 108.93 159.49 65.61 188.00 36.21
  Q 188.27 35.93 187.90 35.81
  Z
  M 403.91 273.84
  Q 404.25 274.51 404.55 273.82
  C 417.19 245.44 406.05 216.25 406.73 187.90
  C 407.09 172.82 410.57 157.74 411.74 142.60
  Q 411.78 142.04 411.23 141.97
  C 394.42 139.69 364.87 138.76 361.45 161.59
  Q 360.20 169.91 360.92 174.05
  C 366.10 204.11 381.31 232.25 396.12 258.13
  C 398.91 263.00 401.21 268.58 403.91 273.84
  Z
  M 233.52 157.98
  C 222.85 129.75 177.28 149.14 161.60 160.48
  A 0.98 0.97 -20.2 0 0 161.20 161.34
  Q 163.40 187.77 161.61 214.17
  C 161.08 221.90 158.64 234.54 159.23 243.49
  C 161.22 273.71 183.08 300.31 214.53 301.12
  Q 214.95 301.13 215.07 300.73
  Q 220.33 283.57 231.21 258.73
  C 244.11 229.27 242.21 200.40 236.55 169.43
  Q 235.32 162.73 233.52 157.98
  Z
  M 481.15 322.62
  C 462.36 325.95 432.03 331.21 415.78 317.85
  Q 415.41 317.54 414.94 317.63
  C 402.17 319.85 398.25 326.74 399.63 339.41
  Q 399.68 339.89 400.11 340.13
  C 404.80 342.80 413.68 343.20 419.00 343.17
  C 441.46 343.04 463.35 338.11 481.29 322.90
  Q 481.76 322.51 481.15 322.62
  Z
  M 216.84 338.34
  C 206.63 350.78 189.79 353.05 173.77 356.51
  Q 172.55 356.77 170.16 357.97
  Q 169.48 358.32 170.16 358.65
  Q 176.64 361.80 186.50 363.38
  Q 223.57 369.30 245.28 341.72
  C 254.30 330.25 236.42 312.33 229.89 322.08
  C 226.08 327.77 221.19 333.03 216.84 338.34
  Z"
/>
<path fill="#0f0b29" d="
  M 392.81 160.49
  C 386.02 165.71 377.01 164.69 372.36 157.01
  C 368.13 150.03 392.43 144.71 396.97 150.77
  C 399.10 153.61 395.05 158.77 392.81 160.49
  Z"
/>
<path fill="#0f0b29" d="
  M 223.58 154.66
  C 239.05 161.38 212.32 181.34 201.48 161.35
  C 198.84 156.49 201.54 153.32 206.42 152.43
  Q 214.90 150.89 223.58 154.66
  Z"
/>
</svg>
