<?xml version="1.0" encoding="UTF-8" standalone="no"?>
<!DOCTYPE svg PUBLIC "-//W3C//DTD SVG 1.1//EN" "http://www.w3.org/Graphics/SVG/1.1/DTD/svg11.dtd">
<svg xmlns="http://www.w3.org/2000/svg" version="1.1" viewBox="0.00 0.00 512.00 512.00">
<path fill="#ffffff" d="
  M 206.55 0.00
  L 212.84 0.00
  Q 233.12 0.50 252.64 5.73
  Q 253.25 5.90 252.81 6.35
  Q 237.81 21.80 227.56 40.75
  Q 227.30 41.24 226.75 41.17
  Q 182.14 35.84 144.16 57.19
  C 102.77 80.46 77.74 123.92 77.02 171.27
  Q 76.26 222.36 106.93 265.32
  Q 117.44 280.03 136.11 304.90
  C 151.12 324.89 162.27 347.36 167.35 372.47
  A 0.67 0.65 84.0 0 0 167.99 373.00
  L 249.99 373.00
  Q 250.51 373.00 250.61 372.49
  Q 255.40 347.82 268.15 326.11
  Q 276.52 311.85 280.68 306.44
  Q 298.53 283.21 315.37 259.06
  Q 315.66 258.64 316.15 258.80
  Q 336.07 265.12 356.97 265.85
  Q 357.56 265.87 357.28 266.39
  C 345.35 288.29 330.21 306.92 315.83 326.43
  C 299.42 348.69 288.34 370.37 288.19 398.74
  Q 288.06 425.12 287.93 451.50
  C 287.78 484.53 263.33 510.08 230.45 512.00
  L 187.40 512.00
  C 154.60 510.00 130.20 484.47 130.05 451.50
  Q 129.94 425.25 129.82 399.00
  C 129.71 373.74 120.92 352.77 106.52 332.66
  C 90.09 309.69 71.34 287.44 58.40 262.23
  Q 32.44 211.65 37.89 155.49
  C 42.01 112.98 62.03 72.94 94.15 44.27
  Q 141.44 2.06 206.55 0.00
  Z
  M 247.56 413.00
  L 170.42 413.00
  A 0.62 0.62 0.0 0 0 169.80 413.62
  L 169.80 450.95
  A 21.13 20.64 -90.0 0 0 190.44 472.08
  L 227.54 472.08
  A 21.13 20.64 90.0 0 0 248.18 450.95
  L 248.18 413.62
  A 0.62 0.62 0.0 0 0 247.56 413.00
  Z"
/>
<path fill="#ffffff" d="
  M 343.15 0.00
  L 382.90 0.00
  L 382.99 35.30
  A 0.72 0.72 0.0 0 0 383.51 35.99
  Q 393.36 38.71 402.20 43.84
  A 1.02 1.00 -52.2 0 0 403.41 43.68
  L 427.97 19.12
  Q 428.36 18.73 428.75 19.12
  L 456.19 46.56
  Q 456.63 47.00 456.19 47.44
  L 431.69 71.94
  Q 431.13 72.50 431.53 73.19
  Q 436.72 82.20 439.47 92.22
  A 1.06 1.05 -7.5 0 0 440.49 93.00
  L 475.23 93.00
  Q 475.71 93.00 475.71 93.48
  L 475.71 132.52
  Q 475.71 133.00 475.23 133.00
  L 440.25 133.00
  A 0.74 0.74 0.0 0 0 439.54 133.54
  Q 436.75 143.79 431.44 152.98
  Q 431.14 153.51 431.57 153.95
  L 456.19 178.56
  Q 456.63 179.00 456.19 179.44
  L 428.74 206.89
  Q 428.35 207.28 427.97 206.89
  L 403.28 182.20
  A 0.77 0.76 52.2 0 0 402.35 182.08
  Q 393.00 187.49 382.55 190.27
  A 0.75 0.73 -7.8 0 0 382.00 190.98
  L 382.00 225.50
  Q 382.00 226.00 381.50 226.00
  L 342.50 226.00
  Q 342.00 226.00 342.00 225.50
  L 342.00 191.00
  A 1.01 1.00 -82.5 0 0 341.26 190.03
  Q 331.43 187.34 322.63 182.23
  Q 321.85 181.78 321.21 182.41
  L 296.74 206.89
  Q 296.36 207.28 295.97 206.89
  L 268.54 179.46
  Q 268.08 179.00 268.54 178.54
  L 293.14 153.91
  A 0.74 0.73 53.2 0 0 293.26 153.03
  Q 287.93 143.78 285.13 133.48
  Q 285.00 133.00 284.50 133.00
  L 249.75 133.00
  A 0.75 0.75 0.0 0 1 249.00 132.25
  L 249.00 94.25
  Q 249.00 93.00 250.25 93.00
  L 284.50 93.00
  Q 284.99 93.00 285.12 92.52
  Q 287.92 82.28 293.19 73.07
  A 0.90 0.89 37.1 0 0 293.04 72.00
  L 268.54 47.46
  Q 268.08 47.00 268.54 46.54
  L 295.97 19.12
  Q 296.36 18.73 296.75 19.12
  L 321.21 43.59
  Q 321.85 44.22 322.63 43.77
  Q 331.89 38.45 342.24 35.72
  A 1.06 1.05 -7.5 0 0 343.03 34.70
  L 343.15 0.00
  Z
  M 327.99 92.70
  C 311.93 120.10 332.58 154.09 364.17 152.86
  C 382.38 152.15 397.30 138.98 401.39 121.23
  Q 403.97 110.08 399.94 99.48
  C 391.07 76.11 363.75 65.83 342.06 78.61
  Q 339.63 80.04 337.03 82.61
  C 333.79 85.81 330.18 88.97 327.99 92.70
  Z"
/>
<path fill="#ffffff" d="
  M 188.56 123.84
  Q 159.16 137.16 156.87 170.46
  Q 156.83 171.00 156.28 171.00
  L 117.52 171.00
  Q 117.08 171.00 117.09 170.55
  C 118.04 119.92 156.97 81.10 207.56 80.08
  Q 208.00 80.07 208.00 80.51
  L 208.00 119.51
  A 0.57 0.56 -0.5 0 1 207.44 120.07
  Q 196.46 120.26 188.56 123.84
  Z"
/>
</svg>
