<?xml version="1.0" encoding="UTF-8" standalone="no"?>
<!DOCTYPE svg PUBLIC "-//W3C//DTD SVG 1.1//EN" "http://www.w3.org/Graphics/SVG/1.1/DTD/svg11.dtd">
<svg xmlns="http://www.w3.org/2000/svg" version="1.1" viewBox="0.00 0.00 512.00 512.00">
<path fill="#0f0b29" d="
  M 179.81 0.00
  L 195.78 0.00
  Q 236.60 0.50 276.88 6.49
  C 302.64 10.32 364.71 22.95 374.03 52.13
  Q 375.52 56.79 375.51 67.53
  Q 375.46 169.98 375.50 272.49
  Q 375.50 273.01 376.03 273.01
  Q 427.88 273.12 479.65 273.01
  Q 489.59 272.98 494.18 274.41
  Q 509.05 279.03 512.00 296.37
  L 512.00 488.78
  Q 508.62 508.79 488.64 512.00
  L 193.90 512.00
  C 178.56 509.47 170.70 499.14 170.70 484.17
  Q 170.70 464.20 170.68 444.03
  Q 170.68 443.48 170.13 443.46
  C 133.21 442.15 97.34 438.22 61.53 428.88
  C 40.71 423.45 3.56 411.07 0.00 385.68
  L 0.00 57.93
  C 3.79 31.22 43.53 18.83 65.27 13.47
  C 102.71 4.25 141.35 0.54 179.81 0.00
  Z
  M 358.27 59.21
  C 356.83 41.91 302.44 28.71 288.77 26.10
  C 233.47 15.53 173.87 14.70 120.00 20.93
  Q 94.14 23.92 67.00 30.92
  C 56.31 33.68 14.07 46.35 17.32 61.44
  C 20.89 78.01 71.81 90.35 86.01 93.00
  Q 121.41 99.60 150.50 101.32
  C 196.41 104.02 243.55 102.07 288.75 93.28
  Q 311.17 88.92 332.47 80.83
  Q 346.61 75.47 355.64 66.43
  Q 358.62 63.45 358.27 59.21
  Z
  M 77.02 108.72
  C 56.38 104.42 34.68 97.95 17.53 86.53
  A 0.32 0.32 0.0 0 0 17.03 86.80
  Q 17.04 128.51 17.17 170.25
  C 17.21 184.37 52.38 195.50 63.52 198.50
  Q 90.87 205.86 116.50 208.99
  Q 194.67 218.52 272.55 206.92
  Q 297.90 203.14 322.26 195.25
  C 331.33 192.31 358.45 182.33 358.47 170.50
  Q 358.57 128.57 358.37 86.73
  A 0.22 0.22 0.0 0 0 358.03 86.55
  C 334.91 101.40 304.96 108.52 278.14 112.62
  Q 201.19 124.37 123.57 116.19
  Q 101.90 113.91 77.02 108.72
  Z
  M 357.90 197.48
  C 344.73 206.27 329.19 211.81 313.97 215.84
  Q 284.04 223.77 253.25 227.00
  C 195.20 233.10 135.30 231.56 78.03 219.80
  C 56.95 215.47 36.13 209.05 17.52 197.61
  Q 17.05 197.33 17.05 197.87
  Q 17.03 237.84 17.02 277.86
  Q 17.02 282.78 18.32 285.45
  C 22.03 293.02 33.63 298.58 40.34 301.35
  Q 61.31 309.99 83.59 314.45
  Q 126.38 323.03 170.11 323.82
  Q 170.65 323.83 170.66 323.29
  Q 170.76 311.82 170.70 300.32
  C 170.61 283.71 181.68 272.96 198.51 272.99
  Q 278.20 273.13 357.91 273.01
  Q 358.45 273.01 358.45 272.48
  L 358.43 197.77
  Q 358.43 197.13 357.90 197.48
  Z
  M 494.96 298.79
  A 8.65 8.65 0.0 0 0 486.31 290.14
  L 196.39 290.14
  A 8.65 8.65 0.0 0 0 187.74 298.79
  L 187.74 486.31
  A 8.65 8.65 0.0 0 0 196.39 494.96
  L 486.31 494.96
  A 8.65 8.65 0.0 0 0 494.96 486.31
  L 494.96 298.79
  Z
  M 17.20 383.75
  C 17.27 400.81 67.06 413.18 79.78 415.88
  Q 124.47 425.36 170.20 426.22
  Q 170.69 426.23 170.69 425.74
  L 170.69 341.53
  A 0.51 0.51 0.0 0 0 170.19 341.02
  Q 125.52 340.07 81.78 331.59
  C 59.56 327.29 36.83 320.81 17.58 308.63
  Q 17.02 308.27 17.02 308.93
  Q 17.04 346.26 17.20 383.75
  Z"
/>
<path fill="#0f0b29" d="
  M 273.05 365.96
  C 271.50 348.73 249.63 343.86 240.98 358.74
  C 236.05 367.22 240.27 379.15 249.69 382.85
  Q 251.82 383.68 256.43 383.90
  C 285.06 385.27 300.29 416.67 282.61 439.58
  Q 277.83 445.76 270.43 449.12
  C 248.79 458.92 223.59 444.51 221.96 420.56
  Q 221.69 416.60 222.95 414.13
  C 225.48 409.14 231.93 408.26 236.03 411.80
  C 239.58 414.87 238.59 418.92 239.45 422.31
  C 242.02 432.42 252.96 437.73 262.43 433.92
  C 276.57 428.23 276.47 408.03 262.27 402.24
  Q 260.19 401.39 255.57 401.16
  Q 241.91 400.49 232.68 391.78
  C 209.90 370.28 225.76 331.77 256.92 332.88
  C 274.57 333.51 287.92 346.21 290.06 363.96
  Q 291.22 373.55 283.32 375.13
  C 276.58 376.47 273.58 371.85 273.05 365.96
  Z"
/>
<path fill="#0f0b29" d="
  M 371.02 435.72
  Q 371.83 436.58 372.65 437.42
  C 379.23 444.21 372.43 454.72 363.92 451.61
  C 361.94 450.89 360.47 449.40 358.98 447.83
  Q 358.60 447.44 358.12 447.70
  C 338.80 458.49 314.48 448.87 308.62 427.47
  Q 307.13 421.99 307.18 407.91
  Q 307.26 389.41 307.23 370.93
  Q 307.21 362.38 308.52 357.69
  C 317.57 325.19 364.71 324.35 374.02 357.44
  Q 375.52 362.75 375.50 375.20
  Q 375.48 396.86 375.48 418.50
  Q 375.48 426.76 370.91 434.82
  Q 370.63 435.31 371.02 435.72
  Z
  M 345.23 434.02
  C 336.81 427.23 343.80 414.85 354.03 419.30
  C 355.22 419.81 356.24 421.05 357.25 421.95
  Q 357.71 422.35 357.88 421.77
  Q 358.43 419.93 358.43 418.00
  Q 358.47 395.04 358.47 372.06
  Q 358.47 364.32 357.05 360.61
  C 351.69 346.57 331.53 346.23 325.65 360.33
  Q 324.28 363.63 324.27 370.10
  Q 324.25 393.92 324.27 417.75
  C 324.28 428.92 334.00 437.15 345.07 434.69
  A 0.38 0.38 0.0 0 0 345.23 434.02
  Z"
/>
<path fill="#0f0b29" d="
  M 410.25 435.20
  Q 430.24 435.25 450.24 435.22
  Q 454.18 435.22 456.12 436.17
  C 462.50 439.30 462.21 448.61 455.72 451.49
  Q 454.01 452.25 450.68 452.25
  Q 426.08 452.26 401.50 452.27
  Q 395.58 452.28 393.51 447.73
  Q 392.51 445.52 392.51 439.62
  Q 392.54 392.26 392.51 344.90
  Q 392.50 340.13 393.22 338.19
  C 395.85 331.08 405.93 331.11 408.91 338.02
  Q 409.64 339.74 409.63 343.07
  Q 409.40 388.85 409.67 434.63
  Q 409.67 435.20 410.25 435.20
  Z"
/>
</svg>
