<?xml version="1.0" encoding="UTF-8" standalone="no"?>
<!DOCTYPE svg PUBLIC "-//W3C//DTD SVG 1.1//EN" "http://www.w3.org/Graphics/SVG/1.1/DTD/svg11.dtd">
<svg xmlns="http://www.w3.org/2000/svg" version="1.1" viewBox="0.00 0.00 512.00 512.00">
<path fill="#0f0b29" d="
  M 512.00 72.04
  L 512.00 77.08
  Q 510.70 101.02 496.81 119.22
  C 467.06 158.21 409.01 157.92 379.17 119.23
  C 359.28 93.45 359.03 56.47 378.60 30.44
  C 405.73 -5.66 458.11 -9.83 490.19 22.07
  Q 510.48 42.25 512.00 72.04
  Z
  M 389.12 96.11
  C 394.28 90.24 399.06 88.06 406.29 85.67
  Q 406.78 85.51 406.72 85.00
  Q 406.14 79.76 406.33 73.26
  C 406.86 55.63 420.30 41.59 438.00 41.60
  C 456.14 41.62 470.01 56.44 469.67 74.75
  Q 469.52 82.49 469.29 85.18
  Q 469.24 85.69 469.75 85.80
  Q 480.07 88.04 486.77 96.13
  Q 487.12 96.56 487.35 96.05
  Q 492.52 84.40 492.04 73.22
  C 490.25 31.42 444.43 5.84 408.52 29.32
  C 386.31 43.84 378.30 71.37 388.61 96.02
  Q 388.79 96.47 389.12 96.11
  Z
  M 430.72 88.99
  C 434.75 92.44 441.02 92.37 445.25 89.07
  C 449.88 85.47 450.19 78.87 449.54 72.95
  Q 448.69 65.09 442.50 62.62
  C 436.74 60.32 429.53 62.75 427.27 68.75
  Q 425.43 73.63 426.26 79.60
  Q 427.13 85.90 430.72 88.99
  Z
  M 410.94 121.08
  C 431.17 132.44 455.47 130.33 473.15 115.18
  Q 473.52 114.87 473.47 114.38
  C 472.54 106.28 466.08 105.09 459.36 104.12
  Q 458.84 104.04 458.41 104.35
  Q 438.08 119.04 417.76 104.47
  Q 417.35 104.18 416.85 104.22
  C 409.92 104.71 403.04 106.73 402.60 114.59
  Q 402.58 115.03 402.92 115.31
  Q 407.91 119.38 410.94 121.08
  Z"
/>
<path fill="#0f0b29" d="
  M 0.00 174.26
  L 0.00 169.42
  Q 1.69 131.54 27.43 105.68
  C 75.10 57.81 155.58 74.53 181.16 136.85
  Q 181.37 137.36 181.90 137.21
  Q 236.12 122.17 290.27 107.19
  C 295.34 105.78 299.80 105.56 303.18 109.57
  C 306.93 114.02 306.29 120.69 301.42 124.11
  Q 299.68 125.32 295.17 126.57
  Q 241.20 141.56 187.21 156.49
  Q 186.70 156.63 186.77 157.16
  Q 192.13 194.53 171.92 224.44
  C 140.77 270.54 75.86 279.97 33.26 243.49
  Q 2.24 216.91 0.00 174.26
  Z
  M 59.57 153.28
  C 74.22 124.84 115.02 124.83 128.69 154.02
  C 133.44 164.15 133.29 177.44 131.41 188.66
  Q 131.32 189.17 131.83 189.25
  Q 149.25 191.91 158.59 206.61
  Q 159.01 207.27 159.36 206.57
  Q 174.52 176.20 163.12 145.86
  C 148.59 107.17 104.64 87.85 66.59 103.28
  C 25.50 119.96 8.33 167.31 28.79 206.57
  Q 29.07 207.11 29.40 206.60
  Q 38.78 191.90 56.17 189.25
  Q 56.69 189.17 56.60 188.66
  C 54.73 177.68 54.36 163.40 59.57 153.28
  Z
  M 112.45 170.25
  C 111.34 145.69 76.41 146.06 75.40 170.74
  Q 74.99 180.92 76.09 184.03
  Q 80.28 195.88 91.40 197.38
  C 99.91 198.53 107.59 194.26 110.94 186.39
  C 112.89 181.80 112.69 175.35 112.45 170.25
  Z
  M 113.43 212.36
  C 98.60 220.70 81.33 219.02 68.43 207.82
  Q 68.07 207.50 67.59 207.56
  Q 56.63 208.91 53.89 210.33
  Q 44.45 215.21 44.12 225.94
  Q 44.11 226.43 44.47 226.75
  C 73.10 252.29 114.87 252.31 143.53 226.75
  Q 143.90 226.42 143.88 225.93
  Q 143.58 216.64 136.59 211.86
  C 132.42 208.99 126.04 208.33 120.76 207.47
  Q 120.25 207.38 119.84 207.69
  C 117.67 209.28 115.52 211.17 113.43 212.36
  Z"
/>
<circle fill="#0f0b29" cx="331.95" cy="106.01" r="9.87"/>
<circle fill="#0f0b29" cx="179.46" cy="259.67" r="9.87"/>
<path fill="#0f0b29" d="
  M 264.28 358.11
  Q 232.60 326.40 200.70 294.91
  Q 196.09 290.36 194.94 287.66
  C 190.60 277.52 203.62 269.66 211.63 277.62
  Q 245.12 310.84 278.63 344.03
  Q 279.02 344.41 279.45 344.07
  C 338.29 297.60 424.11 335.10 431.30 408.29
  C 436.34 459.73 398.65 506.13 346.75 511.04
  C 302.72 515.20 261.89 488.13 248.35 446.15
  C 238.58 415.83 245.04 384.10 264.33 358.96
  Q 264.68 358.51 264.28 358.11
  Z
  M 327.56 344.43
  C 276.39 352.16 248.98 405.87 272.55 452.23
  Q 272.84 452.81 273.19 452.27
  Q 282.57 437.53 299.96 434.84
  Q 300.48 434.76 300.39 434.25
  Q 299.11 426.41 299.41 416.25
  Q 299.89 399.79 311.03 388.79
  Q 322.50 377.46 338.00 377.53
  C 359.45 377.62 376.26 395.03 376.22 416.75
  Q 376.20 428.46 375.38 434.31
  Q 375.31 434.80 375.80 434.87
  Q 393.15 437.55 402.43 452.24
  Q 402.74 452.73 403.02 452.22
  C 431.61 399.12 386.71 335.49 327.56 344.43
  Z
  M 319.77 428.74
  C 321.78 439.72 334.78 446.37 345.03 441.83
  Q 356.03 436.96 356.34 424.25
  C 356.47 418.79 356.73 412.66 354.34 407.86
  C 347.46 394.08 327.55 393.95 321.11 408.31
  C 318.77 413.52 318.75 423.19 319.77 428.74
  Z
  M 363.54 453.46
  C 348.28 465.98 327.61 466.94 312.34 453.41
  Q 311.98 453.09 311.49 453.15
  Q 300.61 454.45 297.91 455.83
  Q 288.26 460.79 287.93 471.64
  A 1.02 0.99 22.6 0 0 288.27 472.43
  C 317.07 497.76 358.52 497.91 387.31 472.50
  Q 387.71 472.15 387.70 471.62
  Q 387.50 461.95 380.02 457.18
  C 375.97 454.60 369.93 453.95 364.90 453.10
  Q 364.14 452.97 363.54 453.46
  Z"
/>
</svg>
