<?xml version="1.0" encoding="UTF-8" standalone="no"?>
<!DOCTYPE svg PUBLIC "-//W3C//DTD SVG 1.1//EN" "http://www.w3.org/Graphics/SVG/1.1/DTD/svg11.dtd">
<svg xmlns="http://www.w3.org/2000/svg" version="1.1" viewBox="0.00 0.00 114.00 114.00">
<path fill="#0f0b29" d="
  M 53.29 0.00
  L 60.79 0.00
  Q 82.25 2.07 97.36 17.01
  Q 97.73 17.38 98.05 16.97
  Q 101.47 12.64 103.47 7.49
  A 0.28 0.28 0.0 0 1 103.99 7.50
  C 111.16 28.48 118.28 53.94 110.66 75.66
  C 97.77 112.45 51.79 126.00 21.33 101.13
  Q 20.87 100.76 21.45 100.85
  Q 26.15 101.60 27.39 97.73
  C 30.13 89.21 14.96 89.09 18.28 98.22
  A 0.18 0.18 0.0 0 1 17.99 98.41
  Q 1.58 82.67 0.00 59.93
  L 0.00 52.67
  Q 0.96 44.08 3.08 38.52
  Q 16.24 4.13 53.29 0.00
  Z
  M 97.69 44.66
  Q 97.73 44.87 97.62 45.25
  C 91.92 64.54 75.55 82.31 56.25 88.48
  Q 46.13 91.71 36.08 94.87
  Q 31.60 96.28 36.29 96.08
  C 38.01 96.01 40.53 95.43 42.59 95.46
  C 56.39 95.67 70.60 96.90 84.26 93.96
  C 121.90 85.85 112.29 37.65 103.42 12.95
  Q 103.26 12.50 103.03 12.92
  C 93.90 29.13 76.33 38.19 57.99 38.53
  C 41.38 38.84 25.26 43.01 18.74 59.91
  C 15.23 69.01 16.49 81.76 25.61 87.34
  Q 27.21 88.33 29.48 87.85
  C 42.43 85.11 56.08 82.19 66.86 76.29
  Q 77.34 70.56 86.11 61.62
  Q 93.60 53.99 97.21 44.80
  Q 97.54 43.97 97.69 44.66
  Z"
/>
</svg>
