<?xml version="1.0" encoding="UTF-8" standalone="no"?>
<!DOCTYPE svg PUBLIC "-//W3C//DTD SVG 1.1//EN" "http://www.w3.org/Graphics/SVG/1.1/DTD/svg11.dtd">
<svg xmlns="http://www.w3.org/2000/svg" version="1.1" viewBox="0.00 0.00 1448.00 1448.00">
<clipPath id="clipping-path-0">
<path d="
  M 0.00 0.00
  L 1448.00 0.00
  L 1448.00 1448.00
  L 0.00 1448.00
  L 0.00 0.00
  Z"/>
</clipPath>
<g stroke-width="2.00" fill="none" stroke-linecap="butt" clip-path="url(#clipping-path-0)">
<path stroke="#9192a8" vector-effect="non-scaling-stroke" d="
  M 375.58 633.96
  L 375.63 702.48"
/>
<path stroke="#8f91a4" vector-effect="non-scaling-stroke" d="
  M 375.63 702.48
  L 375.60 822.71"
/>
<path stroke="#8c8e9f" vector-effect="non-scaling-stroke" d="
  M 375.60 822.71
  L 375.56 933.87
  A 0.40 0.39 25.9 0 0 375.65 934.12
  Q 376.16 934.76 376.35 934.11
  Q 376.43 933.88 376.52 933.75
  Q 440.29 842.66 504.00 751.64
  A 0.45 0.44 47.7 0 1 504.75 751.68
  L 509.13 759.72"
/>
<path stroke="#8a8b99" vector-effect="non-scaling-stroke" d="
  M 509.13 759.72
  L 548.65 832.63"
/>
<path stroke="#888995" vector-effect="non-scaling-stroke" d="
  M 548.65 832.63
  L 571.40 873.85"
/>
<path stroke="#868791" vector-effect="non-scaling-stroke" d="
  M 571.40 873.85
  L 614.26 952.58"
/>
<path stroke="#84858c" vector-effect="non-scaling-stroke" d="
  M 614.26 952.58
  L 636.06 992.19"
/>
<path stroke="#83848a" vector-effect="non-scaling-stroke" d="
  M 636.06 992.19
  L 648.50 1015.37
  Q 648.74 1015.82 649.26 1015.82
  L 687.99 1015.74"
/>
<path stroke="#828287" vector-effect="non-scaling-stroke" d="
  M 687.99 1015.74
  L 748.40 1015.80
  Q 748.99 1015.80 748.71 1015.28
  C 746.99 1012.01 745.54 1008.59 743.85 1005.51
  Q 728.42 977.46 712.86 949.13"
/>
<path stroke="#83848a" vector-effect="non-scaling-stroke" d="
  M 712.86 949.13
  L 692.94 912.60"
/>
<path stroke="#84858c" vector-effect="non-scaling-stroke" d="
  M 692.94 912.60
  L 670.36 871.85"
/>
<path stroke="#868791" vector-effect="non-scaling-stroke" d="
  M 670.36 871.85
  L 627.07 792.91"
/>
<path stroke="#888995" vector-effect="non-scaling-stroke" d="
  M 627.07 792.91
  L 602.74 748.47"
/>
<path stroke="#8a8b99" vector-effect="non-scaling-stroke" d="
  M 602.74 748.47
  Q 586.06 717.11 568.75 686.23
  Q 564.84 679.24 559.84 672.36"
/>
<path stroke="#8c8e9f" vector-effect="non-scaling-stroke" d="
  M 559.84 672.36
  L 677.17 504.32
  Q 677.35 504.07 677.65 503.98
  Q 678.07 503.86 677.95 504.11"
/>
<path stroke="#939393" vector-effect="non-scaling-stroke" d="
  M 677.95 504.11
  Q 759.07 503.53 840.13 504.94
  Q 853.23 505.17 859.99 506.68
  Q 877.78 510.65 892.28 522.68"
/>
<path stroke="#dac0bb" vector-effect="non-scaling-stroke" d="
  M 892.28 522.68
  L 895.56 525.94"
/>
<path stroke="#e7ccc6" vector-effect="non-scaling-stroke" d="
  M 895.56 525.94
  L 900.22 530.39"
/>
<path stroke="#939393" vector-effect="non-scaling-stroke" d="
  M 900.22 530.39
  L 904.92 535.43"
/>
<path stroke="#dac0bb" vector-effect="non-scaling-stroke" d="
  M 904.92 535.43
  Q 905.58 537.40 906.90 538.64"
/>
<path stroke="#e2dad8" vector-effect="non-scaling-stroke" d="
  M 906.90 538.64
  Q 907.53 540.72 909.28 541.56"
/>
<path stroke="#939393" vector-effect="non-scaling-stroke" d="
  M 909.28 541.56
  C 918.00 555.04 921.34 568.36 921.99 584.97
  Q 922.53 598.91 921.27 609.75
  Q 919.76 622.75 912.31 636.38"
/>
<path stroke="#dac0bb" vector-effect="non-scaling-stroke" d="
  M 912.31 636.38
  L 909.45 641.51"
/>
<path stroke="#939393" vector-effect="non-scaling-stroke" d="
  M 909.45 641.51
  C 906.60 645.01 904.43 648.84 901.25 651.96
  C 896.02 657.10 890.72 663.30 885.12 667.11
  Q 877.78 672.10 869.29 674.90"
/>
<path stroke="#e2dad8" vector-effect="non-scaling-stroke" d="
  M 869.29 674.90
  L 862.52 676.88"
/>
<path stroke="#dac0bb" vector-effect="non-scaling-stroke" d="
  M 862.52 676.88
  L 858.25 677.97"
/>
<path stroke="#e2dad8" vector-effect="non-scaling-stroke" d="
  M 858.25 677.97
  C 848.79 678.20 839.10 678.70 829.91 678.72
  Q 803.48 678.78 777.03 679.02"
/>
<path stroke="#939393" vector-effect="non-scaling-stroke" d="
  M 777.03 679.02
  L 774.03 679.30
  Q 773.36 679.37 773.67 679.96
  L 776.24 684.92"
/>
<path stroke="#dac0bb" vector-effect="non-scaling-stroke" d="
  M 776.24 684.92
  Q 776.59 687.15 778.08 688.48"
/>
<path stroke="#e7ccc6" vector-effect="non-scaling-stroke" d="
  M 778.08 688.48
  Q 778.61 691.56 780.65 693.06"
/>
<path stroke="#e7ccc6" vector-effect="non-scaling-stroke" d="
  M 780.65 693.06
  Q 781.50 696.73 784.00 699.70"
/>
<path stroke="#939393" vector-effect="non-scaling-stroke" d="
  M 784.00 699.70
  Q 784.17 700.68 784.95 701.38"
/>
<path stroke="#dac0bb" vector-effect="non-scaling-stroke" d="
  M 784.95 701.38
  Q 785.60 703.85 787.25 705.62"
/>
<path stroke="#939393" vector-effect="non-scaling-stroke" d="
  M 787.25 705.62
  L 789.94 710.41"
/>
<path stroke="#dac0bb" vector-effect="non-scaling-stroke" d="
  M 789.94 710.41
  Q 790.77 713.02 792.56 715.07"
/>
<path stroke="#939393" vector-effect="non-scaling-stroke" d="
  M 792.56 715.07
  L 797.71 724.06"
/>
<path stroke="#dac0bb" vector-effect="non-scaling-stroke" d="
  M 797.71 724.06
  L 801.92 731.81"
/>
<path stroke="#dac0bb" vector-effect="non-scaling-stroke" d="
  M 801.92 731.81
  L 804.51 736.10"
/>
<path stroke="#939393" vector-effect="non-scaling-stroke" d="
  M 804.51 736.10
  L 815.91 757.44"
/>
<path stroke="#dac0bb" vector-effect="non-scaling-stroke" d="
  M 815.91 757.44
  Q 816.73 760.25 818.77 762.36"
/>
<path stroke="#939393" vector-effect="non-scaling-stroke" d="
  M 818.77 762.36
  L 819.36 763.56"
/>
<path stroke="#e7ccc6" vector-effect="non-scaling-stroke" d="
  M 819.36 763.56
  Q 819.72 766.43 821.14 766.54"
/>
<path stroke="#939393" vector-effect="non-scaling-stroke" d="
  M 821.14 766.54
  Q 833.02 787.48 835.80 793.00
  Q 837.08 795.56 837.95 797.09
  Q 840.02 800.72 840.20 801.09
  Q 842.98 806.76 845.96 812.33
  Q 846.06 812.52 846.20 812.60
  Q 846.36 812.69 846.44 812.85
  L 858.90 836.44"
/>
<path stroke="#dac0bb" vector-effect="non-scaling-stroke" d="
  M 858.90 836.44
  Q 859.27 838.14 860.64 839.40"
/>
<path stroke="#939393" vector-effect="non-scaling-stroke" d="
  M 860.64 839.40
  L 875.99 867.68"
/>
<path stroke="#dac0bb" vector-effect="non-scaling-stroke" d="
  M 875.99 867.68
  Q 876.48 870.20 878.09 871.52"
/>
<path stroke="#939393" vector-effect="non-scaling-stroke" d="
  M 878.09 871.52
  L 892.73 897.15"
/>
<path stroke="#e7ccc6" vector-effect="non-scaling-stroke" d="
  M 892.73 897.15
  Q 892.98 899.82 894.99 901.65"
/>
<path stroke="#939393" vector-effect="non-scaling-stroke" d="
  M 894.99 901.65
  L 895.74 902.65"
/>
<path stroke="#dac0bb" vector-effect="non-scaling-stroke" d="
  M 895.74 902.65
  Q 896.99 907.21 899.87 910.65"
/>
<path stroke="#939393" vector-effect="non-scaling-stroke" d="
  M 899.87 910.65
  L 905.04 920.13"
/>
<path stroke="#dac0bb" vector-effect="non-scaling-stroke" d="
  M 905.04 920.13
  Q 906.13 924.33 908.99 927.61"
/>
<path stroke="#939393" vector-effect="non-scaling-stroke" d="
  M 908.99 927.61
  L 911.05 931.39"
/>
<path stroke="#e7ccc6" vector-effect="non-scaling-stroke" d="
  M 911.05 931.39
  Q 910.64 932.99 912.01 933.60"
/>
<path stroke="#939393" vector-effect="non-scaling-stroke" d="
  M 912.01 933.60
  L 914.61 937.74"
/>
<path stroke="#dac0bb" vector-effect="non-scaling-stroke" d="
  M 914.61 937.74
  Q 914.90 939.90 916.31 940.83"
/>
<path stroke="#939393" vector-effect="non-scaling-stroke" d="
  M 916.31 940.83
  L 918.20 944.39"
/>
<path stroke="#e7ccc6" vector-effect="non-scaling-stroke" d="
  M 918.20 944.39
  Q 919.30 948.47 922.67 951.79"
/>
<path stroke="#939393" vector-effect="non-scaling-stroke" d="
  M 922.67 951.79
  Q 922.92 952.07 922.93 952.65"
/>
<path stroke="#e7ccc6" vector-effect="non-scaling-stroke" d="
  M 922.93 952.65
  Q 923.59 955.38 925.53 957.10"
/>
<path stroke="#939393" vector-effect="non-scaling-stroke" d="
  M 925.53 957.10
  L 931.94 969.20"
/>
<path stroke="#dac0bb" vector-effect="non-scaling-stroke" d="
  M 931.94 969.20
  Q 932.37 971.34 933.99 973.12"
/>
<path stroke="#939393" vector-effect="non-scaling-stroke" d="
  M 933.99 973.12
  L 934.97 974.71"
/>
<path stroke="#e7ccc6" vector-effect="non-scaling-stroke" d="
  M 934.97 974.71
  Q 936.43 979.17 939.12 982.56"
/>
<path stroke="#939393" vector-effect="non-scaling-stroke" d="
  M 939.12 982.56
  L 956.81 1015.41
  A 0.85 0.83 75.7 0 0 957.55 1015.86
  L 1056.25 1015.85
  A 0.37 0.37 0.0 0 0 1056.58 1015.30
  Q 1017.61 943.88 978.29 872.46
  Q 977.43 870.89 976.59 869.34
  Q 965.71 849.19 954.57 829.19
  C 952.38 825.25 950.71 820.57 948.02 816.92
  C 946.66 815.08 945.58 812.02 944.92 810.82
  Q 932.85 789.04 920.83 767.25
  C 917.74 761.65 913.93 756.33 910.42 750.87
  Q 907.47 746.26 909.39 742.64"
/>
<path stroke="#e7ccc6" vector-effect="non-scaling-stroke" d="
  M 909.39 742.64
  C 910.94 741.70 911.61 740.95 913.53 740.83
  Q 919.53 740.46 924.41 736.57"
/>
<path stroke="#939393" vector-effect="non-scaling-stroke" d="
  M 924.41 736.57
  Q 924.50 736.21 925.26 736.01"
/>
<path stroke="#e2dad8" vector-effect="non-scaling-stroke" d="
  M 925.26 736.01
  Q 925.75 736.50 926.78 736.03
  Q 931.04 734.07 934.84 730.90"
/>
<path stroke="#939393" vector-effect="non-scaling-stroke" d="
  M 934.84 730.90
  Q 936.36 729.41 938.47 728.61"
/>
<path stroke="#e2dad8" vector-effect="non-scaling-stroke" d="
  M 938.47 728.61
  Q 941.88 727.57 943.33 725.38"
/>
<path stroke="#939393" vector-effect="non-scaling-stroke" d="
  M 943.33 725.38
  Q 955.03 717.29 965.50 707.54"
/>
<path stroke="#e7ccc6" vector-effect="non-scaling-stroke" d="
  M 965.50 707.54
  Q 968.22 705.95 969.56 703.43"
/>
<path stroke="#939393" vector-effect="non-scaling-stroke" d="
  M 969.56 703.43
  Q 982.73 689.54 992.54 673.11"
/>
<path stroke="#e2dad8" vector-effect="non-scaling-stroke" d="
  M 992.54 673.11
  Q 994.55 671.65 994.82 669.42"
/>
<path stroke="#939393" vector-effect="non-scaling-stroke" d="
  M 994.82 669.42
  L 1004.77 648.61"
/>
<path stroke="#e2dad8" vector-effect="non-scaling-stroke" d="
  M 1004.77 648.61
  Q 1006.65 646.36 1006.68 643.35"
/>
<path stroke="#939393" vector-effect="non-scaling-stroke" d="
  M 1006.68 643.35
  L 1010.76 630.53"
/>
<path stroke="#dac0bb" vector-effect="non-scaling-stroke" d="
  M 1010.76 630.53
  L 1012.29 624.47"
/>
<path stroke="#939393" vector-effect="non-scaling-stroke" d="
  M 1012.29 624.47
  Q 1014.66 613.94 1015.78 603.22
  Q 1016.83 593.25 1015.91 583.28
  Q 1014.33 566.14 1009.60 550.87
  Q 987.95 480.95 922.25 447.79"
/>
<path stroke="#e2dad8" vector-effect="non-scaling-stroke" d="
  M 922.25 447.79
  Q 918.95 445.48 914.90 444.51"
/>
<path stroke="#939393" vector-effect="non-scaling-stroke" d="
  M 914.90 444.51
  L 897.76 438.32"
/>
<path stroke="#e7ccc6" vector-effect="non-scaling-stroke" d="
  M 897.76 438.32
  Q 895.31 436.62 892.16 436.74"
/>
<path stroke="#939393" vector-effect="non-scaling-stroke" d="
  M 892.16 436.74
  C 877.26 432.70 863.58 431.02 847.25 431.02
  Q 788.31 430.98 728.59 431.00"
/>
<path stroke="#8c8e9f" vector-effect="non-scaling-stroke" d="
  M 728.59 431.00
  L 633.36 431.03
  Q 632.86 431.03 632.57 431.44
  Q 554.60 542.70 476.70 654.00
  C 471.95 660.79 463.59 671.81 457.78 681.36
  Q 457.48 681.85 457.27 681.31
  Q 456.87 680.24 457.01 678.96"
/>
<path stroke="#8f91a4" vector-effect="non-scaling-stroke" d="
  M 457.01 678.96
  L 456.70 570.80"
/>
<path stroke="#9192a8" vector-effect="non-scaling-stroke" d="
  M 456.70 570.80
  L 456.54 502.23"
/>
<path stroke="#9294ac" vector-effect="non-scaling-stroke" d="
  M 456.54 502.23
  L 456.45 431.48
  Q 456.45 431.00 455.97 431.00
  L 376.04 431.00
  Q 375.58 431.00 375.58 431.47
  L 375.58 633.96"
/>
<path stroke="#242754" vector-effect="non-scaling-stroke" d="
  M 456.54 502.23
  L 455.86 486.92
  A 1.38 1.38 0.0 0 0 454.39 485.60
  Q 452.94 485.70 452.27 487.19
  Q 451.67 488.50 451.11 489.17
  Q 449.79 490.72 449.31 492.05
  Q 448.67 493.83 447.65 494.83
  Q 447.26 495.21 447.10 495.72
  Q 446.61 497.20 445.28 498.00
  A 0.85 0.85 0.0 0 0 444.88 498.72
  L 444.88 499.10
  Q 444.88 499.65 444.44 499.98
  Q 442.59 501.34 441.79 503.42
  Q 441.62 503.88 441.24 504.17
  Q 439.70 505.37 439.87 507.22
  Q 439.91 507.66 439.54 507.89
  Q 438.11 508.79 437.77 510.38
  Q 437.67 510.87 437.26 511.15
  Q 436.11 511.94 435.89 512.75
  Q 435.19 515.28 433.47 516.97
  Q 433.13 517.30 433.03 517.77
  Q 432.74 519.17 431.38 519.90
  Q 430.95 520.13 430.93 520.62
  Q 430.85 522.12 429.37 522.93
  Q 428.96 523.16 428.93 523.63
  Q 428.84 525.02 427.58 525.81
  Q 427.11 526.10 426.96 526.64
  Q 426.26 529.16 424.49 530.92
  Q 424.13 531.28 424.03 531.78
  Q 423.74 533.17 422.38 533.90
  Q 421.95 534.13 421.93 534.61
  Q 421.85 536.12 420.37 536.93
  Q 419.95 537.16 419.93 537.63
  Q 419.84 539.08 418.46 539.88
  Q 418.06 540.11 417.94 540.56
  Q 417.21 543.39 415.61 544.87
  Q 414.84 545.58 414.80 546.27
  Q 414.78 546.71 414.41 546.94
  Q 413.10 547.76 412.75 549.23
  Q 412.65 549.64 412.36 549.96
  L 411.37 551.05
  Q 411.04 551.41 410.89 551.88
  Q 410.18 554.23 408.50 555.91
  Q 408.14 556.27 408.03 556.77
  Q 407.73 558.17 406.39 558.90
  Q 405.95 559.13 405.93 559.62
  Q 405.85 561.00 404.59 561.78
  Q 404.13 562.08 403.98 562.61
  Q 403.27 565.16 401.49 566.95
  Q 401.13 567.32 401.02 567.81
  Q 400.72 569.18 399.38 569.90
  Q 398.95 570.13 398.93 570.61
  Q 398.85 572.07 397.46 572.88
  Q 397.07 573.11 396.95 573.55
  Q 396.09 576.87 393.42 578.90
  Q 393.00 579.22 392.88 579.75
  Q 392.34 582.24 390.47 583.94
  Q 390.06 584.32 389.94 584.87
  Q 389.61 586.31 388.21 587.03
  Q 387.75 587.26 387.87 587.77
  Q 388.13 588.84 387.14 589.09
  A 1.31 1.29 4.1 0 0 386.27 589.83
  L 384.73 593.47
  Q 384.57 593.85 384.22 594.07
  Q 383.11 594.80 382.81 596.02
  Q 382.69 596.49 382.37 596.85
  Q 380.71 598.68 379.85 601.13
  Q 379.72 601.51 379.40 601.75
  L 378.65 602.31
  A 0.41 0.40 68.9 0 1 378.01 602.02
  Q 377.56 596.75 377.06 591.50
  Q 377.04 591.23 376.84 591.04
  Q 376.41 590.60 376.40 591.22
  L 375.58 633.96"
/>
<path stroke="#20244d" vector-effect="non-scaling-stroke" d="
  M 456.70 570.80
  L 456.16 560.20
  A 0.92 0.92 0.0 0 0 454.36 560.00
  Q 453.42 563.29 451.63 565.11
  Q 451.29 565.46 451.15 565.93
  Q 450.81 567.11 449.77 567.91
  Q 449.38 568.21 449.21 568.68
  Q 448.29 571.20 446.61 573.23
  Q 446.30 573.61 446.15 574.07
  Q 445.78 575.19 444.64 575.90
  Q 444.21 576.17 444.15 576.67
  Q 443.97 578.08 442.74 578.92
  Q 442.32 579.21 442.21 579.71
  Q 441.90 581.04 440.77 581.91
  Q 440.38 582.21 440.21 582.68
  Q 439.27 585.24 437.55 587.30
  Q 437.24 587.68 437.09 588.14
  Q 436.73 589.25 435.62 589.98
  Q 435.21 590.25 435.14 590.74
  Q 434.93 592.10 433.74 592.92
  Q 433.32 593.21 433.20 593.71
  Q 432.90 595.03 431.80 595.89
  Q 431.42 596.19 431.24 596.65
  Q 430.29 599.19 428.60 601.24
  Q 428.29 601.62 428.14 602.08
  Q 427.76 603.23 426.62 603.98
  Q 426.21 604.25 426.14 604.74
  Q 425.94 606.05 424.83 606.86
  Q 424.43 607.15 424.26 607.61
  Q 423.30 610.18 421.60 612.24
  Q 421.29 612.62 421.14 613.08
  Q 420.76 614.23 419.62 614.98
  Q 419.21 615.25 419.14 615.74
  Q 418.94 617.05 417.83 617.86
  Q 417.43 618.15 417.26 618.61
  Q 416.30 621.18 414.60 623.24
  Q 414.29 623.62 414.14 624.08
  Q 413.76 625.23 412.62 625.98
  Q 412.21 626.25 412.14 626.74
  Q 411.94 628.06 410.80 628.88
  Q 410.40 629.17 410.23 629.63
  Q 409.28 632.23 407.55 634.30
  Q 407.24 634.68 407.09 635.14
  Q 406.73 636.25 405.62 636.98
  Q 405.21 637.25 405.14 637.74
  Q 404.93 639.10 403.74 639.92
  Q 403.32 640.21 403.20 640.71
  Q 402.90 642.03 401.80 642.89
  Q 401.42 643.19 401.24 643.65
  Q 400.29 646.19 398.60 648.24
  Q 398.29 648.62 398.14 649.08
  Q 397.76 650.23 396.62 650.98
  Q 396.21 651.25 396.14 651.74
  Q 395.94 653.06 394.80 653.88
  Q 394.40 654.17 394.23 654.63
  Q 393.29 657.20 391.58 659.27
  Q 391.29 659.62 391.04 660.01
  L 378.78 678.98
  A 0.53 0.53 0.0 0 1 377.80 678.72
  Q 377.42 671.68 376.79 664.92
  Q 376.78 664.86 376.85 664.86
  Q 378.86 664.90 376.65 664.87
  A 0.13 0.13 0.0 0 0 376.52 665.00
  L 375.63 702.48"
/>
<path stroke="#202132" vector-effect="non-scaling-stroke" d="
  M 728.59 431.00
  L 678.41 502.15
  A 1.34 1.29 68.6 0 0 678.18 502.71
  L 677.95 504.11"
/>
<path stroke="#171a39" vector-effect="non-scaling-stroke" d="
  M 559.84 672.36
  L 558.66 673.56
  Q 558.13 674.10 558.48 673.42
  Q 558.94 672.52 558.55 671.70
  Q 558.13 670.84 558.10 671.80
  Q 558.06 673.11 556.80 673.80
  Q 556.40 674.02 556.22 674.44
  L 554.87 677.59
  Q 554.73 677.92 554.43 678.12
  Q 553.32 678.86 553.03 680.05
  Q 552.90 680.54 552.56 680.91
  C 551.77 681.77 551.26 682.08 550.88 683.29
  Q 550.21 685.46 548.59 687.06
  Q 548.23 687.41 548.10 687.90
  Q 547.77 689.12 546.68 689.93
  Q 546.25 690.25 546.13 690.77
  Q 545.83 692.05 544.73 692.89
  Q 544.33 693.20 544.15 693.69
  Q 543.23 696.23 541.52 698.26
  Q 541.19 698.65 541.03 699.13
  Q 540.66 700.20 539.68 700.93
  Q 539.25 701.25 539.13 701.77
  Q 538.83 703.08 537.68 703.93
  Q 537.25 704.25 537.13 704.76
  Q 536.84 706.05 535.73 706.89
  Q 535.33 707.20 535.15 707.68
  Q 534.23 710.23 532.52 712.26
  Q 532.19 712.65 532.03 713.13
  Q 531.66 714.20 530.68 714.93
  Q 530.25 715.25 530.13 715.77
  Q 529.83 717.08 528.68 717.93
  Q 528.25 718.25 528.13 718.76
  Q 527.84 720.03 526.76 720.87
  Q 526.36 721.18 526.18 721.66
  Q 525.26 724.18 523.57 726.20
  Q 523.25 726.59 523.09 727.06
  Q 522.71 728.14 521.73 728.89
  Q 521.33 729.20 521.15 729.68
  Q 520.25 732.18 518.58 734.19
  Q 518.26 734.58 518.10 735.05
  Q 517.71 736.15 516.69 736.88
  Q 516.26 737.19 516.14 737.72
  Q 515.85 739.07 514.68 739.93
  Q 514.25 740.25 514.13 740.76
  Q 513.84 742.05 512.73 742.89
  Q 512.33 743.20 512.15 743.68
  Q 511.23 746.23 509.52 748.27
  Q 509.19 748.65 509.03 749.13
  Q 508.64 750.28 507.53 751.03
  Q 506.97 751.41 507.34 751.98
  Q 507.58 752.34 507.04 752.62
  A 0.84 0.83 65.3 0 0 506.65 753.69
  L 509.13 759.72"
/>
<path stroke="#1c1f44" vector-effect="non-scaling-stroke" d="
  M 375.60 822.71
  Q 375.77 810.83 376.45 798.91
  Q 376.50 798.06 377.21 795.43
  Q 377.69 793.66 377.38 791.73
  Q 377.26 791.00 377.58 791.61
  Q 377.71 791.85 377.38 792.16
  A 0.19 0.18 62.2 0 0 377.34 792.30
  L 378.14 796.19
  Q 378.30 796.99 378.83 796.36
  Q 379.84 795.13 380.50 793.69
  Q 381.21 792.16 382.02 791.11
  Q 383.19 789.61 384.02 787.89
  Q 384.88 786.13 385.53 785.22
  Q 386.44 783.94 387.36 782.71
  C 387.99 781.87 387.99 780.78 389.24 780.07
  Q 389.66 779.83 389.76 779.36
  Q 390.08 777.91 391.39 777.07
  Q 391.78 776.82 391.87 776.37
  Q 392.18 774.82 393.62 774.04
  Q 394.04 773.82 394.07 773.34
  Q 394.17 771.99 395.41 771.21
  Q 395.87 770.92 396.02 770.39
  Q 396.73 767.85 398.50 766.05
  Q 398.86 765.69 398.97 765.19
  Q 399.28 763.82 400.61 763.10
  Q 401.04 762.87 401.07 762.38
  Q 401.15 761.00 402.41 760.21
  Q 402.87 759.92 403.02 759.39
  Q 403.73 756.85 405.50 755.05
  Q 405.86 754.69 405.97 754.19
  Q 406.28 752.82 407.61 752.10
  Q 408.04 751.87 408.07 751.38
  Q 408.15 750.00 409.41 749.21
  Q 409.87 748.92 410.02 748.39
  Q 410.73 745.85 412.50 744.05
  Q 412.86 743.69 412.97 743.19
  Q 413.28 741.82 414.61 741.10
  Q 415.04 740.87 415.07 740.38
  Q 415.15 739.00 416.41 738.21
  Q 416.87 737.92 417.02 737.39
  Q 417.73 734.84 419.51 733.04
  Q 419.87 732.68 419.98 732.19
  Q 420.27 730.82 421.61 730.10
  Q 422.04 729.87 422.07 729.39
  Q 422.15 727.89 423.61 727.08
  Q 424.02 726.86 424.06 726.39
  Q 424.20 724.93 425.46 724.16
  Q 425.80 723.95 425.93 723.57
  Q 426.80 720.85 428.65 718.76
  Q 429.03 718.33 429.22 717.78
  Q 430.21 714.93 432.58 713.09
  Q 433.00 712.76 433.11 712.24
  Q 433.64 709.92 435.30 708.27
  Q 435.72 707.85 435.91 707.27
  Q 436.35 705.95 437.50 705.12
  A 1.43 1.42 80.8 0 0 438.00 704.42
  Q 438.79 701.86 440.52 699.98
  Q 440.87 699.59 441.00 699.09
  Q 441.32 697.79 442.62 697.10
  Q 443.04 696.87 443.07 696.39
  Q 443.15 694.86 444.66 694.05
  Q 445.05 693.84 445.07 693.41
  Q 445.14 691.95 446.52 691.15
  A 1.00 0.98 -8.7 0 0 446.97 690.55
  Q 447.65 687.93 449.76 686.34
  Q 450.25 685.97 450.34 685.37
  Q 450.81 682.25 453.22 680.38
  Q 453.59 680.09 453.79 679.67
  L 455.36 676.41
  Q 455.74 675.63 456.08 676.43
  Q 456.54 677.52 456.07 678.56
  Q 455.83 679.11 456.31 678.76
  L 456.64 678.53
  Q 456.69 678.49 456.70 678.55
  Q 456.77 678.94 457.01 678.96"
/>
<path stroke="#13152f" vector-effect="non-scaling-stroke" d="
  M 602.74 748.47
  Q 601.88 748.55 600.74 748.09
  Q 600.13 747.84 599.97 748.48
  Q 599.14 751.74 596.59 753.77
  Q 596.17 754.11 596.01 754.63
  Q 595.23 757.14 593.56 758.89
  Q 593.19 759.27 593.01 759.76
  Q 592.06 762.28 590.37 764.23
  Q 590.01 764.64 589.86 765.15
  Q 589.55 766.17 588.58 766.81
  Q 588.11 767.13 587.95 767.67
  Q 587.01 770.89 584.43 772.90
  Q 584.00 773.23 583.88 773.76
  Q 583.29 776.33 581.42 777.99
  Q 581.04 778.32 580.94 778.82
  Q 580.68 780.15 579.45 780.90
  Q 579.07 781.13 578.95 781.56
  Q 578.09 784.79 575.53 786.83
  A 1.85 1.82 -11.8 0 0 574.93 787.73
  Q 574.20 790.28 572.35 792.05
  Q 572.00 792.40 571.87 792.88
  Q 571.30 795.09 569.74 796.69
  Q 569.37 797.08 569.15 797.56
  Q 568.26 799.59 566.40 800.91
  A 1.16 1.10 81.3 0 0 565.96 801.54
  Q 565.28 804.10 563.48 806.00
  Q 563.17 806.33 563.01 806.75
  Q 562.06 809.28 560.37 811.23
  Q 560.01 811.64 559.86 812.15
  Q 559.53 813.24 558.45 813.90
  Q 558.07 814.13 557.95 814.56
  Q 557.09 817.79 554.52 819.83
  A 1.80 1.76 -12.5 0 0 553.93 820.73
  Q 553.18 823.43 551.20 825.16
  Q 550.77 825.53 550.90 826.08
  Q 551.03 826.67 550.53 826.89
  Q 549.96 827.13 549.92 827.74
  Q 549.84 829.32 548.29 829.65
  Q 547.95 829.73 548.24 829.93
  Q 549.46 830.78 548.65 832.63"
/>
<path stroke="#7a5f5a" vector-effect="non-scaling-stroke" d="
  M 892.16 436.74
  L 897.76 438.32"
/>
<path stroke="#756d6c" vector-effect="non-scaling-stroke" d="
  M 914.90 444.51
  L 922.25 447.79"
/>
<path stroke="#6e534f" vector-effect="non-scaling-stroke" d="
  M 1012.29 624.47
  L 1010.76 630.53"
/>
<path stroke="#756d6c" vector-effect="non-scaling-stroke" d="
  M 1006.68 643.35
  L 1004.77 648.61"
/>
<path stroke="#756d6c" vector-effect="non-scaling-stroke" d="
  M 994.82 669.42
  L 992.54 673.11"
/>
<path stroke="#7a5f5a" vector-effect="non-scaling-stroke" d="
  M 969.56 703.43
  L 965.50 707.54"
/>
<path stroke="#756d6c" vector-effect="non-scaling-stroke" d="
  M 943.33 725.38
  L 938.47 728.61"
/>
<path stroke="#756d6c" vector-effect="non-scaling-stroke" d="
  M 934.84 730.90
  L 925.26 736.01"
/>
<path stroke="#7a5f5a" vector-effect="non-scaling-stroke" d="
  M 924.41 736.57
  Q 921.38 737.70 918.58 739.07
  C 914.96 740.85 911.73 738.32 909.39 742.64"
/>
<path stroke="#7a5f5a" vector-effect="non-scaling-stroke" d="
  M 939.12 982.56
  L 934.97 974.71"
/>
<path stroke="#6e534f" vector-effect="non-scaling-stroke" d="
  M 933.99 973.12
  Q 933.68 970.64 931.94 969.20"
/>
<path stroke="#7a5f5a" vector-effect="non-scaling-stroke" d="
  M 925.53 957.10
  Q 924.80 954.62 922.93 952.65"
/>
<path stroke="#7a5f5a" vector-effect="non-scaling-stroke" d="
  M 922.67 951.79
  L 918.20 944.39"
/>
<path stroke="#6e534f" vector-effect="non-scaling-stroke" d="
  M 916.31 940.83
  Q 915.94 938.91 914.61 937.74"
/>
<path stroke="#7a5f5a" vector-effect="non-scaling-stroke" d="
  M 912.01 933.60
  Q 912.02 932.31 911.05 931.39"
/>
<path stroke="#6e534f" vector-effect="non-scaling-stroke" d="
  M 908.99 927.61
  L 905.04 920.13"
/>
<path stroke="#6e534f" vector-effect="non-scaling-stroke" d="
  M 899.87 910.65
  L 895.74 902.65"
/>
<path stroke="#7a5f5a" vector-effect="non-scaling-stroke" d="
  M 894.99 901.65
  L 892.73 897.15"
/>
<path stroke="#6e534f" vector-effect="non-scaling-stroke" d="
  M 878.09 871.52
  Q 877.46 869.04 875.99 867.68"
/>
<path stroke="#6e534f" vector-effect="non-scaling-stroke" d="
  M 860.64 839.40
  Q 860.52 837.50 858.90 836.44"
/>
<path stroke="#7a5f5a" vector-effect="non-scaling-stroke" d="
  M 821.14 766.54
  L 819.36 763.56"
/>
<path stroke="#6e534f" vector-effect="non-scaling-stroke" d="
  M 818.77 762.36
  Q 817.87 759.52 815.91 757.44"
/>
<path stroke="#6e534f" vector-effect="non-scaling-stroke" d="
  M 804.51 736.10
  Q 803.95 733.11 801.92 731.81"
/>
<path stroke="#6e534f" vector-effect="non-scaling-stroke" d="
  M 801.92 731.81
  Q 800.36 727.26 797.71 724.06"
/>
<path stroke="#6e534f" vector-effect="non-scaling-stroke" d="
  M 792.56 715.07
  Q 791.99 711.99 789.94 710.41"
/>
<path stroke="#6e534f" vector-effect="non-scaling-stroke" d="
  M 787.25 705.62
  Q 786.79 702.66 784.95 701.38"
/>
<path stroke="#7a5f5a" vector-effect="non-scaling-stroke" d="
  M 784.00 699.70
  Q 783.00 695.87 780.65 693.06"
/>
<path stroke="#7a5f5a" vector-effect="non-scaling-stroke" d="
  M 780.65 693.06
  L 778.08 688.48"
/>
<path stroke="#6e534f" vector-effect="non-scaling-stroke" d="
  M 778.08 688.48
  Q 778.12 686.33 776.24 684.92"
/>
<path stroke="#756d6c" vector-effect="non-scaling-stroke" d="
  M 777.03 679.02
  Q 778.36 679.71 779.95 679.38"
/>
<path stroke="#4e4342" vector-effect="non-scaling-stroke" d="
  M 779.95 679.38
  L 804.23 679.75"
/>
<path stroke="#413032" vector-effect="non-scaling-stroke" d="
  M 804.23 679.75
  L 843.52 679.21"
/>
<path stroke="#756d6c" vector-effect="non-scaling-stroke" d="
  M 843.52 679.21
  L 854.46 679.00"
/>
<path stroke="#4e4342" vector-effect="non-scaling-stroke" d="
  M 854.46 679.00
  Q 857.62 679.32 860.47 678.12"
/>
<path stroke="#6e534f" vector-effect="non-scaling-stroke" d="
  M 860.47 678.12
  Q 861.92 677.87 863.07 677.09"
/>
<path stroke="#756d6c" vector-effect="non-scaling-stroke" d="
  M 863.07 677.09
  Q 866.42 676.79 869.29 674.90"
/>
<path stroke="#6e534f" vector-effect="non-scaling-stroke" d="
  M 909.45 641.51
  Q 911.80 639.06 912.31 636.38"
/>
<path stroke="#756d6c" vector-effect="non-scaling-stroke" d="
  M 909.28 541.56
  Q 908.71 539.83 907.30 538.53"
/>
<path stroke="#6e534f" vector-effect="non-scaling-stroke" d="
  M 907.30 538.53
  Q 906.60 536.45 904.92 535.43"
/>
<path stroke="#7a5f5a" vector-effect="non-scaling-stroke" d="
  M 900.22 530.39
  Q 898.56 527.66 895.97 525.80"
/>
<path stroke="#6e534f" vector-effect="non-scaling-stroke" d="
  M 895.97 525.80
  Q 894.33 523.18 892.28 522.68"
/>
<path stroke="#0f1127" vector-effect="non-scaling-stroke" d="
  M 627.07 792.91
  Q 624.53 792.23 624.50 790.75
  Q 624.49 790.30 624.04 790.30
  Q 623.89 790.31 623.74 790.18
  Q 623.44 789.93 623.34 790.30
  Q 622.87 791.98 621.53 793.10
  Q 621.20 793.37 621.10 793.77
  Q 620.44 796.31 618.60 798.08
  Q 618.25 798.42 618.10 798.88
  Q 617.05 802.09 614.43 804.12
  Q 614.12 804.36 614.12 804.75
  L 614.11 805.06
  Q 614.11 805.48 613.81 805.79
  L 609.53 810.11
  Q 609.20 810.45 609.07 810.91
  Q 608.40 813.33 606.64 815.05
  Q 606.30 815.39 606.17 815.86
  Q 605.83 817.09 604.77 817.91
  Q 604.38 818.22 604.21 818.68
  Q 603.27 821.24 601.55 823.30
  Q 601.24 823.68 601.09 824.14
  Q 600.73 825.25 599.62 825.98
  Q 599.21 826.25 599.14 826.74
  Q 598.94 828.10 597.74 828.92
  Q 597.32 829.21 597.20 829.71
  Q 596.89 831.09 595.70 831.97
  Q 595.31 832.25 595.18 832.72
  Q 594.67 834.44 593.62 835.85
  Q 592.14 837.83 591.77 838.70
  Q 590.87 840.85 590.15 843.10
  A 2.04 2.03 -13.8 0 1 589.65 843.92
  Q 587.89 845.68 587.05 848.14
  Q 586.87 848.67 586.48 849.08
  L 584.51 851.17
  Q 584.18 851.52 584.05 851.98
  Q 583.36 854.36 581.62 856.08
  Q 581.27 856.42 581.16 856.89
  Q 580.87 858.02 579.89 858.80
  Q 579.53 859.08 579.33 859.49
  Q 578.79 860.60 578.30 861.74
  Q 577.91 862.64 576.95 863.66
  Q 575.37 865.34 574.09 868.23
  Q 573.42 869.73 571.29 870.84
  Q 570.89 871.05 570.97 871.50
  L 571.40 873.85"
/>
<path stroke="#9d8a88" vector-effect="non-scaling-stroke" d="
  M 858.49 678.15
  L 854.46 679.00"
/>
<path stroke="#907778" vector-effect="non-scaling-stroke" d="
  M 843.52 679.21
  L 814.48 679.05"
/>
<path stroke="#9d8a88" vector-effect="non-scaling-stroke" d="
  M 814.48 679.05
  L 779.95 679.38"
/>
<path stroke="#95706b" vector-effect="non-scaling-stroke" d="
  M 860.47 678.12
  L 858.49 678.15"
/>
<path stroke="#bd9a94" vector-effect="non-scaling-stroke" d="
  M 858.49 678.15
  Q 858.37 678.06 858.25 677.97"
/>
<path stroke="#694d4e" vector-effect="non-scaling-stroke" d="
  M 814.48 679.05
  L 804.23 679.75"
/>
<path stroke="#bd9a94" vector-effect="non-scaling-stroke" d="
  M 863.07 677.09
  Q 862.91 676.82 862.52 676.88"
/>
<path stroke="#bd9a94" vector-effect="non-scaling-stroke" d="
  M 907.30 538.53
  Q 907.10 538.59 906.90 538.64"
/>
<path stroke="#c28c82" vector-effect="non-scaling-stroke" d="
  M 895.97 525.80
  Q 895.39 525.76 895.56 525.94"
/>
<path stroke="#0b0d1e" vector-effect="non-scaling-stroke" d="
  M 670.36 871.85
  Q 669.60 872.08 669.14 871.90
  Q 668.68 871.72 668.75 871.24
  Q 668.86 870.40 667.95 870.28
  A 0.48 0.48 0.0 0 1 667.59 869.58
  L 667.92 868.94
  Q 668.01 868.76 667.82 868.72
  Q 666.54 868.40 665.42 868.91
  Q 664.96 869.13 664.92 869.64
  Q 664.84 871.12 663.37 871.92
  Q 662.95 872.16 662.93 872.63
  Q 662.84 874.07 661.47 874.87
  Q 661.07 875.10 660.96 875.55
  Q 660.10 878.78 657.55 880.82
  Q 657.11 881.17 656.95 881.72
  Q 656.23 884.20 654.49 885.95
  Q 654.13 886.31 654.02 886.81
  Q 653.72 888.18 652.38 888.90
  Q 651.95 889.13 651.93 889.61
  Q 651.85 891.11 650.39 891.91
  Q 649.98 892.14 649.95 892.62
  Q 649.85 894.12 648.34 894.92
  Q 647.94 895.14 647.87 895.58
  Q 647.18 899.54 643.61 900.90
  Q 643.09 901.09 642.95 901.62
  Q 642.22 904.42 640.17 906.19
  Q 639.79 906.52 639.88 907.01
  Q 639.99 907.56 639.61 907.84
  Q 639.08 908.23 639.02 908.30
  Q 637.55 910.04 636.80 912.31
  Q 636.65 912.78 636.27 913.10
  Q 633.86 915.13 632.86 918.20
  Q 632.71 918.69 632.33 919.04
  Q 631.36 919.93 630.83 921.08
  Q 630.61 921.55 630.27 921.95
  Q 628.47 924.12 627.69 926.84
  A 1.10 1.07 89.2 0 1 627.01 927.56
  Q 625.83 927.98 625.87 929.13
  Q 625.88 929.63 625.47 929.91
  Q 624.29 930.72 623.85 931.95
  Q 623.69 932.41 623.38 932.78
  Q 621.72 934.80 620.78 937.29
  Q 620.61 937.74 620.24 938.06
  Q 619.27 938.91 618.87 940.08
  Q 618.71 940.55 618.36 940.90
  Q 617.41 941.88 616.92 943.10
  Q 616.73 943.57 616.35 943.92
  Q 615.12 945.05 615.40 946.73
  A 0.27 0.27 0.0 0 1 615.01 947.01
  Q 614.89 946.95 614.77 946.89
  A 0.06 0.06 0.0 0 0 614.68 946.95
  L 614.89 947.95
  Q 614.95 948.23 614.69 948.37
  Q 613.86 948.79 613.78 949.75
  A 0.93 0.90 -65.9 0 0 614.05 950.49
  Q 615.04 951.48 614.26 952.58"
/>
<path stroke="#080a17" vector-effect="non-scaling-stroke" d="
  M 692.94 912.60
  Q 690.09 912.14 689.70 908.78
  Q 689.64 908.28 689.17 908.46
  Q 687.88 908.95 687.90 910.29
  Q 687.90 910.75 687.50 910.99
  Q 686.07 911.82 685.85 913.37
  Q 685.77 913.89 685.32 914.17
  Q 684.09 914.94 683.88 916.19
  Q 683.79 916.72 683.35 917.04
  Q 682.11 917.94 681.82 919.37
  Q 681.72 919.87 681.30 920.17
  Q 680.08 921.00 679.91 921.74
  Q 679.32 924.29 677.47 926.02
  Q 677.06 926.40 676.99 926.95
  Q 676.87 927.90 675.96 928.42
  A 1.15 1.15 0.0 0 0 675.38 929.42
  L 675.38 932.25
  Q 675.38 932.86 674.78 932.84
  Q 672.39 932.74 671.92 935.26
  Q 671.78 936.02 670.60 936.78
  A 1.35 1.34 78.7 0 0 670.00 937.69
  Q 669.79 939.04 668.58 939.88
  Q 668.17 940.16 668.02 940.63
  Q 667.21 943.21 665.44 945.11
  Q 665.08 945.48 664.95 945.98
  Q 664.64 947.16 663.55 947.88
  Q 663.11 948.17 663.01 948.69
  Q 662.77 950.08 661.55 950.87
  Q 661.11 951.17 661.01 951.69
  Q 660.77 953.05 659.61 953.84
  Q 659.18 954.12 659.03 954.62
  Q 658.22 957.20 656.44 959.11
  Q 656.08 959.48 655.95 959.98
  Q 655.64 961.16 654.55 961.88
  Q 654.11 962.17 654.01 962.69
  Q 653.77 964.08 652.55 964.87
  Q 652.11 965.17 652.01 965.69
  Q 651.77 967.05 650.61 967.84
  Q 650.18 968.12 650.03 968.62
  Q 649.22 971.20 647.44 973.11
  Q 647.08 973.48 646.95 973.98
  Q 646.64 975.16 645.55 975.88
  Q 645.11 976.17 645.01 976.70
  Q 644.77 978.05 643.61 978.84
  Q 643.18 979.12 643.03 979.61
  Q 642.22 982.21 640.43 984.11
  Q 640.08 984.49 639.95 984.98
  Q 639.62 986.22 638.45 986.94
  Q 637.97 987.24 637.96 987.80
  Q 637.93 989.14 636.55 989.49
  Q 636.05 989.61 636.06 990.13
  L 636.06 992.19"
/>
<path stroke="#060711" vector-effect="non-scaling-stroke" d="
  M 712.86 949.13
  Q 711.94 951.28 711.23 951.99
  Q 708.31 954.92 707.04 958.91
  Q 706.89 959.38 706.55 959.73
  Q 704.61 961.75 703.75 964.49
  Q 703.63 964.88 703.31 965.13
  Q 701.34 966.63 700.83 967.96
  Q 700.29 969.39 699.38 970.01
  Q 699.02 970.26 698.91 970.70
  Q 698.28 973.17 696.51 974.89
  Q 696.13 975.26 695.96 975.77
  Q 695.16 978.24 693.48 979.97
  Q 693.13 980.34 693.01 980.84
  Q 692.71 982.19 691.38 982.90
  Q 690.95 983.13 690.93 983.61
  Q 690.85 985.12 689.37 985.93
  Q 688.95 986.16 688.93 986.63
  Q 688.84 988.02 687.58 988.81
  Q 687.11 989.10 686.96 989.64
  Q 686.26 992.16 684.49 993.92
  Q 684.13 994.28 684.03 994.78
  Q 683.74 996.17 682.38 996.90
  Q 681.95 997.13 681.93 997.61
  Q 681.85 999.11 680.39 999.92
  Q 679.98 1000.14 679.94 1000.61
  Q 679.80 1002.16 678.38 1002.93
  Q 678.02 1003.13 677.94 1003.53
  Q 677.41 1006.14 675.42 1008.00
  Q 675.03 1008.36 674.87 1008.87
  Q 673.89 1011.99 671.36 1014.05
  A 0.59 0.58 -63.2 0 0 671.70 1015.09
  L 687.99 1015.74"
/>
</g>
<path fill="#ffffff" d="
  M 475.12 629.22
  A 0.30 0.30 0.0 0 0 475.67 629.39
  Q 546.40 528.31 617.10 427.35
  Q 618.80 424.92 625.48 416.68
  Q 625.79 416.30 626.28 416.30
  Q 743.27 416.32 860.26 416.28
  Q 872.53 416.28 880.22 417.16
  C 959.82 426.30 1020.96 487.71 1030.32 567.16
  C 1031.52 577.33 1031.05 589.91 1031.12 601.30
  C 1031.52 665.69 992.74 724.69 935.71 752.43
  A 0.79 0.79 0.0 0 0 935.37 753.52
  Q 950.60 780.41 965.10 807.65
  Q 969.93 816.71 974.67 825.21
  C 999.23 869.28 1022.84 913.90 1046.99 958.19
  C 1049.59 962.95 1053.47 968.62 1056.27 974.13
  Q 1058.69 978.88 1060.94 982.88
  C 1063.11 986.74 1065.07 991.05 1067.09 994.63
  Q 1076.62 1011.55 1085.89 1028.62
  Q 1086.35 1029.46 1086.96 1029.94
  A 0.32 0.32 0.0 0 1 1086.76 1030.52
  L 942.23 1030.52
  Q 941.43 1030.52 941.05 1029.81
  C 915.76 982.62 890.95 935.86 865.72 889.69
  Q 845.28 852.30 825.36 814.62
  Q 820.80 806.00 815.79 797.08
  C 804.56 777.07 793.76 756.84 782.50 736.85
  Q 758.71 694.62 747.11 671.79
  Q 745.31 668.25 748.57 665.16
  Q 748.90 664.85 749.35 664.84
  Q 788.49 664.03 827.63 664.20
  Q 839.96 664.25 846.29 662.96
  Q 859.53 660.25 870.89 652.76
  Q 875.03 650.03 880.00 645.00
  C 883.78 641.18 887.82 637.31 890.90 633.27
  Q 901.79 619.00 905.63 601.00
  C 906.71 595.95 907.24 591.53 906.38 586.31
  C 901.02 553.97 877.55 528.07 845.31 521.08
  Q 838.99 519.71 828.56 519.58
  Q 757.89 518.71 687.22 518.32
  Q 686.67 518.31 686.36 518.76
  L 578.77 672.33
  Q 578.44 672.80 578.72 673.30
  Q 590.47 694.68 602.35 715.96
  C 604.12 719.15 605.85 722.85 607.73 726.27
  Q 703.28 900.69 752.48 990.05
  Q 755.20 994.99 756.47 998.19
  Q 758.71 1003.82 761.57 1009.16
  C 766.50 1018.38 769.16 1023.63 772.78 1031.00
  Q 773.09 1031.63 772.57 1031.15
  L 772.25 1030.85
  Q 771.89 1030.52 771.39 1030.52
  L 641.25 1030.52
  Q 640.76 1030.52 640.56 1030.07
  C 638.05 1024.48 634.04 1019.09 631.57 1014.33
  C 617.51 987.31 602.40 961.94 589.81 937.65
  C 589.18 936.44 587.86 935.25 587.30 934.20
  Q 573.23 907.69 558.93 881.31
  C 558.54 880.59 557.90 880.08 557.53 879.42
  Q 552.62 870.68 537.65 842.82
  Q 520.87 811.62 503.36 780.73
  A 0.25 0.25 0.0 0 0 502.94 780.71
  Q 445.28 863.00 387.60 945.36
  C 386.85 946.43 385.82 946.76 385.07 948.04
  C 383.69 950.38 379.93 957.32 377.75 958.47
  Q 377.26 958.73 376.99 959.21
  Q 375.47 961.99 372.90 963.84
  Q 372.53 964.11 372.33 964.53
  C 370.20 969.10 363.26 969.58 361.18 965.41
  Q 360.29 963.62 360.29 958.96
  Q 360.25 687.86 360.28 416.76
  A 0.47 0.46 0.0 0 1 360.75 416.30
  L 474.47 416.31
  Q 475.13 416.31 475.13 416.97
  L 475.12 629.22
  Z
  M 375.58 633.96
  L 375.63 702.48
  L 375.60 822.71
  L 375.56 933.87
  A 0.40 0.39 25.9 0 0 375.65 934.12
  Q 376.16 934.76 376.35 934.11
  Q 376.43 933.88 376.52 933.75
  Q 440.29 842.66 504.00 751.64
  A 0.45 0.44 47.7 0 1 504.75 751.68
  L 509.13 759.72
  L 548.65 832.63
  L 571.40 873.85
  L 614.26 952.58
  L 636.06 992.19
  L 648.50 1015.37
  Q 648.74 1015.82 649.26 1015.82
  L 687.99 1015.74
  L 748.40 1015.80
  Q 748.99 1015.80 748.71 1015.28
  C 746.99 1012.01 745.54 1008.59 743.85 1005.51
  Q 728.42 977.46 712.86 949.13
  L 692.94 912.60
  L 670.36 871.85
  L 627.07 792.91
  L 602.74 748.47
  Q 586.06 717.11 568.75 686.23
  Q 564.84 679.24 559.84 672.36
  L 677.17 504.32
  Q 677.35 504.07 677.65 503.98
  Q 678.07 503.86 677.95 504.11
  Q 759.07 503.53 840.13 504.94
  Q 853.23 505.17 859.99 506.68
  Q 877.78 510.65 892.28 522.68
  L 895.56 525.94
  L 900.22 530.39
  L 904.92 535.43
  Q 905.58 537.40 906.90 538.64
  Q 907.53 540.72 909.28 541.56
  C 918.00 555.04 921.34 568.36 921.99 584.97
  Q 922.53 598.91 921.27 609.75
  Q 919.76 622.75 912.31 636.38
  L 909.45 641.51
  C 906.60 645.01 904.43 648.84 901.25 651.96
  C 896.02 657.10 890.72 663.30 885.12 667.11
  Q 877.78 672.10 869.29 674.90
  L 862.52 676.88
  L 858.25 677.97
  C 848.79 678.20 839.10 678.70 829.91 678.72
  Q 803.48 678.78 777.03 679.02
  L 774.03 679.30
  Q 773.36 679.37 773.67 679.96
  L 776.24 684.92
  Q 776.59 687.15 778.08 688.48
  Q 778.61 691.56 780.65 693.06
  Q 781.50 696.73 784.00 699.70
  Q 784.17 700.68 784.95 701.38
  Q 785.60 703.85 787.25 705.62
  L 789.94 710.41
  Q 790.77 713.02 792.56 715.07
  L 797.71 724.06
  L 801.92 731.81
  L 804.51 736.10
  L 815.91 757.44
  Q 816.73 760.25 818.77 762.36
  L 819.36 763.56
  Q 819.72 766.43 821.14 766.54
  Q 833.02 787.48 835.80 793.00
  Q 837.08 795.56 837.95 797.09
  Q 840.02 800.72 840.20 801.09
  Q 842.98 806.76 845.96 812.33
  Q 846.06 812.52 846.20 812.60
  Q 846.36 812.69 846.44 812.85
  L 858.90 836.44
  Q 859.27 838.14 860.64 839.40
  L 875.99 867.68
  Q 876.48 870.20 878.09 871.52
  L 892.73 897.15
  Q 892.98 899.82 894.99 901.65
  L 895.74 902.65
  Q 896.99 907.21 899.87 910.65
  L 905.04 920.13
  Q 906.13 924.33 908.99 927.61
  L 911.05 931.39
  Q 910.64 932.99 912.01 933.60
  L 914.61 937.74
  Q 914.90 939.90 916.31 940.83
  L 918.20 944.39
  Q 919.30 948.47 922.67 951.79
  Q 922.92 952.07 922.93 952.65
  Q 923.59 955.38 925.53 957.10
  L 931.94 969.20
  Q 932.37 971.34 933.99 973.12
  L 934.97 974.71
  Q 936.43 979.17 939.12 982.56
  L 956.81 1015.41
  A 0.85 0.83 75.7 0 0 957.55 1015.86
  L 1056.25 1015.85
  A 0.37 0.37 0.0 0 0 1056.58 1015.30
  Q 1017.61 943.88 978.29 872.46
  Q 977.43 870.89 976.59 869.34
  Q 965.71 849.19 954.57 829.19
  C 952.38 825.25 950.71 820.57 948.02 816.92
  C 946.66 815.08 945.58 812.02 944.92 810.82
  Q 932.85 789.04 920.83 767.25
  C 917.74 761.65 913.93 756.33 910.42 750.87
  Q 907.47 746.26 909.39 742.64
  C 910.94 741.70 911.61 740.95 913.53 740.83
  Q 919.53 740.46 924.41 736.57
  Q 924.50 736.21 925.26 736.01
  Q 925.75 736.50 926.78 736.03
  Q 931.04 734.07 934.84 730.90
  Q 936.36 729.41 938.47 728.61
  Q 941.88 727.57 943.33 725.38
  Q 955.03 717.29 965.50 707.54
  Q 968.22 705.95 969.56 703.43
  Q 982.73 689.54 992.54 673.11
  Q 994.55 671.65 994.82 669.42
  L 1004.77 648.61
  Q 1006.65 646.36 1006.68 643.35
  L 1010.76 630.53
  L 1012.29 624.47
  Q 1014.66 613.94 1015.78 603.22
  Q 1016.83 593.25 1015.91 583.28
  Q 1014.33 566.14 1009.60 550.87
  Q 987.95 480.95 922.25 447.79
  Q 918.95 445.48 914.90 444.51
  L 897.76 438.32
  Q 895.31 436.62 892.16 436.74
  C 877.26 432.70 863.58 431.02 847.25 431.02
  Q 788.31 430.98 728.59 431.00
  L 633.36 431.03
  Q 632.86 431.03 632.57 431.44
  Q 554.60 542.70 476.70 654.00
  C 471.95 660.79 463.59 671.81 457.78 681.36
  Q 457.48 681.85 457.27 681.31
  Q 456.87 680.24 457.01 678.96
  L 456.70 570.80
  L 456.54 502.23
  L 456.45 431.48
  Q 456.45 431.00 455.97 431.00
  L 376.04 431.00
  Q 375.58 431.00 375.58 431.47
  L 375.58 633.96
  Z"
/>
<path fill="#252958" d="
  M 456.54 502.23
  L 455.86 486.92
  A 1.38 1.38 0.0 0 0 454.39 485.60
  Q 452.94 485.70 452.27 487.19
  Q 451.67 488.50 451.11 489.17
  Q 449.79 490.72 449.31 492.05
  Q 448.67 493.83 447.65 494.83
  Q 447.26 495.21 447.10 495.72
  Q 446.61 497.20 445.28 498.00
  A 0.85 0.85 0.0 0 0 444.88 498.72
  L 444.88 499.10
  Q 444.88 499.65 444.44 499.98
  Q 442.59 501.34 441.79 503.42
  Q 441.62 503.88 441.24 504.17
  Q 439.70 505.37 439.87 507.22
  Q 439.91 507.66 439.54 507.89
  Q 438.11 508.79 437.77 510.38
  Q 437.67 510.87 437.26 511.15
  Q 436.11 511.94 435.89 512.75
  Q 435.19 515.28 433.47 516.97
  Q 433.13 517.30 433.03 517.77
  Q 432.74 519.17 431.38 519.90
  Q 430.95 520.13 430.93 520.62
  Q 430.85 522.12 429.37 522.93
  Q 428.96 523.16 428.93 523.63
  Q 428.84 525.02 427.58 525.81
  Q 427.11 526.10 426.96 526.64
  Q 426.26 529.16 424.49 530.92
  Q 424.13 531.28 424.03 531.78
  Q 423.74 533.17 422.38 533.90
  Q 421.95 534.13 421.93 534.61
  Q 421.85 536.12 420.37 536.93
  Q 419.95 537.16 419.93 537.63
  Q 419.84 539.08 418.46 539.88
  Q 418.06 540.11 417.94 540.56
  Q 417.21 543.39 415.61 544.87
  Q 414.84 545.58 414.80 546.27
  Q 414.78 546.71 414.41 546.94
  Q 413.10 547.76 412.75 549.23
  Q 412.65 549.64 412.36 549.96
  L 411.37 551.05
  Q 411.04 551.41 410.89 551.88
  Q 410.18 554.23 408.50 555.91
  Q 408.14 556.27 408.03 556.77
  Q 407.73 558.17 406.39 558.90
  Q 405.95 559.13 405.93 559.62
  Q 405.85 561.00 404.59 561.78
  Q 404.13 562.08 403.98 562.61
  Q 403.27 565.16 401.49 566.95
  Q 401.13 567.32 401.02 567.81
  Q 400.72 569.18 399.38 569.90
  Q 398.95 570.13 398.93 570.61
  Q 398.85 572.07 397.46 572.88
  Q 397.07 573.11 396.95 573.55
  Q 396.09 576.87 393.42 578.90
  Q 393.00 579.22 392.88 579.75
  Q 392.34 582.24 390.47 583.94
  Q 390.06 584.32 389.94 584.87
  Q 389.61 586.31 388.21 587.03
  Q 387.75 587.26 387.87 587.77
  Q 388.13 588.84 387.14 589.09
  A 1.31 1.29 4.1 0 0 386.27 589.83
  L 384.73 593.47
  Q 384.57 593.85 384.22 594.07
  Q 383.11 594.80 382.81 596.02
  Q 382.69 596.49 382.37 596.85
  Q 380.71 598.68 379.85 601.13
  Q 379.72 601.51 379.40 601.75
  L 378.65 602.31
  A 0.41 0.40 68.9 0 1 378.01 602.02
  Q 377.56 596.75 377.06 591.50
  Q 377.04 591.23 376.84 591.04
  Q 376.41 590.60 376.40 591.22
  L 375.58 633.96
  L 375.58 431.47
  Q 375.58 431.00 376.04 431.00
  L 455.97 431.00
  Q 456.45 431.00 456.45 431.48
  L 456.54 502.23
  Z"
/>
<path fill="#191c3e" d="
  M 728.59 431.00
  L 678.41 502.15
  A 1.34 1.29 68.6 0 0 678.18 502.71
  L 677.95 504.11
  Q 678.07 503.86 677.65 503.98
  Q 677.35 504.07 677.17 504.32
  L 559.84 672.36
  L 558.66 673.56
  Q 558.13 674.10 558.48 673.42
  Q 558.94 672.52 558.55 671.70
  Q 558.13 670.84 558.10 671.80
  Q 558.06 673.11 556.80 673.80
  Q 556.40 674.02 556.22 674.44
  L 554.87 677.59
  Q 554.73 677.92 554.43 678.12
  Q 553.32 678.86 553.03 680.05
  Q 552.90 680.54 552.56 680.91
  C 551.77 681.77 551.26 682.08 550.88 683.29
  Q 550.21 685.46 548.59 687.06
  Q 548.23 687.41 548.10 687.90
  Q 547.77 689.12 546.68 689.93
  Q 546.25 690.25 546.13 690.77
  Q 545.83 692.05 544.73 692.89
  Q 544.33 693.20 544.15 693.69
  Q 543.23 696.23 541.52 698.26
  Q 541.19 698.65 541.03 699.13
  Q 540.66 700.20 539.68 700.93
  Q 539.25 701.25 539.13 701.77
  Q 538.83 703.08 537.68 703.93
  Q 537.25 704.25 537.13 704.76
  Q 536.84 706.05 535.73 706.89
  Q 535.33 707.20 535.15 707.68
  Q 534.23 710.23 532.52 712.26
  Q 532.19 712.65 532.03 713.13
  Q 531.66 714.20 530.68 714.93
  Q 530.25 715.25 530.13 715.77
  Q 529.83 717.08 528.68 717.93
  Q 528.25 718.25 528.13 718.76
  Q 527.84 720.03 526.76 720.87
  Q 526.36 721.18 526.18 721.66
  Q 525.26 724.18 523.57 726.20
  Q 523.25 726.59 523.09 727.06
  Q 522.71 728.14 521.73 728.89
  Q 521.33 729.20 521.15 729.68
  Q 520.25 732.18 518.58 734.19
  Q 518.26 734.58 518.10 735.05
  Q 517.71 736.15 516.69 736.88
  Q 516.26 737.19 516.14 737.72
  Q 515.85 739.07 514.68 739.93
  Q 514.25 740.25 514.13 740.76
  Q 513.84 742.05 512.73 742.89
  Q 512.33 743.20 512.15 743.68
  Q 511.23 746.23 509.52 748.27
  Q 509.19 748.65 509.03 749.13
  Q 508.64 750.28 507.53 751.03
  Q 506.97 751.41 507.34 751.98
  Q 507.58 752.34 507.04 752.62
  A 0.84 0.83 65.3 0 0 506.65 753.69
  L 509.13 759.72
  L 504.75 751.68
  A 0.45 0.44 47.7 0 0 504.00 751.64
  Q 440.29 842.66 376.52 933.75
  Q 376.43 933.88 376.35 934.11
  Q 376.16 934.76 375.65 934.12
  A 0.40 0.39 25.9 0 1 375.56 933.87
  L 375.60 822.71
  Q 375.77 810.83 376.45 798.91
  Q 376.50 798.06 377.21 795.43
  Q 377.69 793.66 377.38 791.73
  Q 377.26 791.00 377.58 791.61
  Q 377.71 791.85 377.38 792.16
  A 0.19 0.18 62.2 0 0 377.34 792.30
  L 378.14 796.19
  Q 378.30 796.99 378.83 796.36
  Q 379.84 795.13 380.50 793.69
  Q 381.21 792.16 382.02 791.11
  Q 383.19 789.61 384.02 787.89
  Q 384.88 786.13 385.53 785.22
  Q 386.44 783.94 387.36 782.71
  C 387.99 781.87 387.99 780.78 389.24 780.07
  Q 389.66 779.83 389.76 779.36
  Q 390.08 777.91 391.39 777.07
  Q 391.78 776.82 391.87 776.37
  Q 392.18 774.82 393.62 774.04
  Q 394.04 773.82 394.07 773.34
  Q 394.17 771.99 395.41 771.21
  Q 395.87 770.92 396.02 770.39
  Q 396.73 767.85 398.50 766.05
  Q 398.86 765.69 398.97 765.19
  Q 399.28 763.82 400.61 763.10
  Q 401.04 762.87 401.07 762.38
  Q 401.15 761.00 402.41 760.21
  Q 402.87 759.92 403.02 759.39
  Q 403.73 756.85 405.50 755.05
  Q 405.86 754.69 405.97 754.19
  Q 406.28 752.82 407.61 752.10
  Q 408.04 751.87 408.07 751.38
  Q 408.15 750.00 409.41 749.21
  Q 409.87 748.92 410.02 748.39
  Q 410.73 745.85 412.50 744.05
  Q 412.86 743.69 412.97 743.19
  Q 413.28 741.82 414.61 741.10
  Q 415.04 740.87 415.07 740.38
  Q 415.15 739.00 416.41 738.21
  Q 416.87 737.92 417.02 737.39
  Q 417.73 734.84 419.51 733.04
  Q 419.87 732.68 419.98 732.19
  Q 420.27 730.82 421.61 730.10
  Q 422.04 729.87 422.07 729.39
  Q 422.15 727.89 423.61 727.08
  Q 424.02 726.86 424.06 726.39
  Q 424.20 724.93 425.46 724.16
  Q 425.80 723.95 425.93 723.57
  Q 426.80 720.85 428.65 718.76
  Q 429.03 718.33 429.22 717.78
  Q 430.21 714.93 432.58 713.09
  Q 433.00 712.76 433.11 712.24
  Q 433.64 709.92 435.30 708.27
  Q 435.72 707.85 435.91 707.27
  Q 436.35 705.95 437.50 705.12
  A 1.43 1.42 80.8 0 0 438.00 704.42
  Q 438.79 701.86 440.52 699.98
  Q 440.87 699.59 441.00 699.09
  Q 441.32 697.79 442.62 697.10
  Q 443.04 696.87 443.07 696.39
  Q 443.15 694.86 444.66 694.05
  Q 445.05 693.84 445.07 693.41
  Q 445.14 691.95 446.52 691.15
  A 1.00 0.98 -8.7 0 0 446.97 690.55
  Q 447.65 687.93 449.76 686.34
  Q 450.25 685.97 450.34 685.37
  Q 450.81 682.25 453.22 680.38
  Q 453.59 680.09 453.79 679.67
  L 455.36 676.41
  Q 455.74 675.63 456.08 676.43
  Q 456.54 677.52 456.07 678.56
  Q 455.83 679.11 456.31 678.76
  L 456.64 678.53
  Q 456.69 678.49 456.70 678.55
  Q 456.77 678.94 457.01 678.96
  Q 456.87 680.24 457.27 681.31
  Q 457.48 681.85 457.78 681.36
  C 463.59 671.81 471.95 660.79 476.70 654.00
  Q 554.60 542.70 632.57 431.44
  Q 632.86 431.03 633.36 431.03
  L 728.59 431.00
  Z"
/>
<path fill="#262626" d="
  M 728.59 431.00
  Q 788.31 430.98 847.25 431.02
  C 863.58 431.02 877.26 432.70 892.16 436.74
  L 897.76 438.32
  L 914.90 444.51
  L 922.25 447.79
  Q 987.95 480.95 1009.60 550.87
  Q 1014.33 566.14 1015.91 583.28
  Q 1016.83 593.25 1015.78 603.22
  Q 1014.66 613.94 1012.29 624.47
  L 1010.76 630.53
  L 1006.68 643.35
  L 1004.77 648.61
  L 994.82 669.42
  L 992.54 673.11
  Q 982.73 689.54 969.56 703.43
  L 965.50 707.54
  Q 955.03 717.29 943.33 725.38
  L 938.47 728.61
  Q 936.36 729.41 934.84 730.90
  L 925.26 736.01
  Q 924.50 736.21 924.41 736.57
  Q 921.38 737.70 918.58 739.07
  C 914.96 740.85 911.73 738.32 909.39 742.64
  Q 907.47 746.26 910.42 750.87
  C 913.93 756.33 917.74 761.65 920.83 767.25
  Q 932.85 789.04 944.92 810.82
  C 945.58 812.02 946.66 815.08 948.02 816.92
  C 950.71 820.57 952.38 825.25 954.57 829.19
  Q 965.71 849.19 976.59 869.34
  Q 977.43 870.89 978.29 872.46
  Q 1017.61 943.88 1056.58 1015.30
  A 0.37 0.37 0.0 0 1 1056.25 1015.85
  L 957.55 1015.86
  A 0.85 0.83 75.7 0 1 956.81 1015.41
  L 939.12 982.56
  L 934.97 974.71
  L 933.99 973.12
  Q 933.68 970.64 931.94 969.20
  L 925.53 957.10
  Q 924.80 954.62 922.93 952.65
  Q 922.92 952.07 922.67 951.79
  L 918.20 944.39
  L 916.31 940.83
  Q 915.94 938.91 914.61 937.74
  L 912.01 933.60
  Q 912.02 932.31 911.05 931.39
  L 908.99 927.61
  L 905.04 920.13
  L 899.87 910.65
  L 895.74 902.65
  L 894.99 901.65
  L 892.73 897.15
  L 878.09 871.52
  Q 877.46 869.04 875.99 867.68
  L 860.64 839.40
  Q 860.52 837.50 858.90 836.44
  L 846.44 812.85
  Q 846.36 812.69 846.20 812.60
  Q 846.06 812.52 845.96 812.33
  Q 842.98 806.76 840.20 801.09
  Q 840.02 800.72 837.95 797.09
  Q 837.08 795.56 835.80 793.00
  Q 833.02 787.48 821.14 766.54
  L 819.36 763.56
  L 818.77 762.36
  Q 817.87 759.52 815.91 757.44
  L 804.51 736.10
  Q 803.95 733.11 801.92 731.81
  Q 800.36 727.26 797.71 724.06
  L 792.56 715.07
  Q 791.99 711.99 789.94 710.41
  L 787.25 705.62
  Q 786.79 702.66 784.95 701.38
  Q 784.17 700.68 784.00 699.70
  Q 783.00 695.87 780.65 693.06
  L 778.08 688.48
  Q 778.12 686.33 776.24 684.92
  L 773.67 679.96
  Q 773.36 679.37 774.03 679.30
  L 777.03 679.02
  Q 778.36 679.71 779.95 679.38
  L 804.23 679.75
  L 843.52 679.21
  L 854.46 679.00
  Q 857.62 679.32 860.47 678.12
  Q 861.92 677.87 863.07 677.09
  Q 866.42 676.79 869.29 674.90
  Q 877.78 672.10 885.12 667.11
  C 890.72 663.30 896.02 657.10 901.25 651.96
  C 904.43 648.84 906.60 645.01 909.45 641.51
  Q 911.80 639.06 912.31 636.38
  Q 919.76 622.75 921.27 609.75
  Q 922.53 598.91 921.99 584.97
  C 921.34 568.36 918.00 555.04 909.28 541.56
  Q 908.71 539.83 907.30 538.53
  Q 906.60 536.45 904.92 535.43
  L 900.22 530.39
  Q 898.56 527.66 895.97 525.80
  Q 894.33 523.18 892.28 522.68
  Q 877.78 510.65 859.99 506.68
  Q 853.23 505.17 840.13 504.94
  Q 759.07 503.53 677.95 504.11
  L 678.18 502.71
  A 1.34 1.29 68.6 0 1 678.41 502.15
  L 728.59 431.00
  Z"
/>
<path fill="#ce988d" d="
  M 892.16 436.74
  Q 895.31 436.62 897.76 438.32
  L 892.16 436.74
  Z"
/>
<path fill="#c4b4b1" d="
  M 914.90 444.51
  Q 918.95 445.48 922.25 447.79
  L 914.90 444.51
  Z"
/>
<path fill="#222550" d="
  M 456.54 502.23
  L 456.70 570.80
  L 456.16 560.20
  A 0.92 0.92 0.0 0 0 454.36 560.00
  Q 453.42 563.29 451.63 565.11
  Q 451.29 565.46 451.15 565.93
  Q 450.81 567.11 449.77 567.91
  Q 449.38 568.21 449.21 568.68
  Q 448.29 571.20 446.61 573.23
  Q 446.30 573.61 446.15 574.07
  Q 445.78 575.19 444.64 575.90
  Q 444.21 576.17 444.15 576.67
  Q 443.97 578.08 442.74 578.92
  Q 442.32 579.21 442.21 579.71
  Q 441.90 581.04 440.77 581.91
  Q 440.38 582.21 440.21 582.68
  Q 439.27 585.24 437.55 587.30
  Q 437.24 587.68 437.09 588.14
  Q 436.73 589.25 435.62 589.98
  Q 435.21 590.25 435.14 590.74
  Q 434.93 592.10 433.74 592.92
  Q 433.32 593.21 433.20 593.71
  Q 432.90 595.03 431.80 595.89
  Q 431.42 596.19 431.24 596.65
  Q 430.29 599.19 428.60 601.24
  Q 428.29 601.62 428.14 602.08
  Q 427.76 603.23 426.62 603.98
  Q 426.21 604.25 426.14 604.74
  Q 425.94 606.05 424.83 606.86
  Q 424.43 607.15 424.26 607.61
  Q 423.30 610.18 421.60 612.24
  Q 421.29 612.62 421.14 613.08
  Q 420.76 614.23 419.62 614.98
  Q 419.21 615.25 419.14 615.74
  Q 418.94 617.05 417.83 617.86
  Q 417.43 618.15 417.26 618.61
  Q 416.30 621.18 414.60 623.24
  Q 414.29 623.62 414.14 624.08
  Q 413.76 625.23 412.62 625.98
  Q 412.21 626.25 412.14 626.74
  Q 411.94 628.06 410.80 628.88
  Q 410.40 629.17 410.23 629.63
  Q 409.28 632.23 407.55 634.30
  Q 407.24 634.68 407.09 635.14
  Q 406.73 636.25 405.62 636.98
  Q 405.21 637.25 405.14 637.74
  Q 404.93 639.10 403.74 639.92
  Q 403.32 640.21 403.20 640.71
  Q 402.90 642.03 401.80 642.89
  Q 401.42 643.19 401.24 643.65
  Q 400.29 646.19 398.60 648.24
  Q 398.29 648.62 398.14 649.08
  Q 397.76 650.23 396.62 650.98
  Q 396.21 651.25 396.14 651.74
  Q 395.94 653.06 394.80 653.88
  Q 394.40 654.17 394.23 654.63
  Q 393.29 657.20 391.58 659.27
  Q 391.29 659.62 391.04 660.01
  L 378.78 678.98
  A 0.53 0.53 0.0 0 1 377.80 678.72
  Q 377.42 671.68 376.79 664.92
  Q 376.78 664.86 376.85 664.86
  Q 378.86 664.90 376.65 664.87
  A 0.13 0.13 0.0 0 0 376.52 665.00
  L 375.63 702.48
  L 375.58 633.96
  L 376.40 591.22
  Q 376.41 590.60 376.84 591.04
  Q 377.04 591.23 377.06 591.50
  Q 377.56 596.75 378.01 602.02
  A 0.41 0.40 68.9 0 0 378.65 602.31
  L 379.40 601.75
  Q 379.72 601.51 379.85 601.13
  Q 380.71 598.68 382.37 596.85
  Q 382.69 596.49 382.81 596.02
  Q 383.11 594.80 384.22 594.07
  Q 384.57 593.85 384.73 593.47
  L 386.27 589.83
  A 1.31 1.29 4.1 0 1 387.14 589.09
  Q 388.13 588.84 387.87 587.77
  Q 387.75 587.26 388.21 587.03
  Q 389.61 586.31 389.94 584.87
  Q 390.06 584.32 390.47 583.94
  Q 392.34 582.24 392.88 579.75
  Q 393.00 579.22 393.42 578.90
  Q 396.09 576.87 396.95 573.55
  Q 397.07 573.11 397.46 572.88
  Q 398.85 572.07 398.93 570.61
  Q 398.95 570.13 399.38 569.90
  Q 400.72 569.18 401.02 567.81
  Q 401.13 567.32 401.49 566.95
  Q 403.27 565.16 403.98 562.61
  Q 404.13 562.08 404.59 561.78
  Q 405.85 561.00 405.93 559.62
  Q 405.95 559.13 406.39 558.90
  Q 407.73 558.17 408.03 556.77
  Q 408.14 556.27 408.50 555.91
  Q 410.18 554.23 410.89 551.88
  Q 411.04 551.41 411.37 551.05
  L 412.36 549.96
  Q 412.65 549.64 412.75 549.23
  Q 413.10 547.76 414.41 546.94
  Q 414.78 546.71 414.80 546.27
  Q 414.84 545.58 415.61 544.87
  Q 417.21 543.39 417.94 540.56
  Q 418.06 540.11 418.46 539.88
  Q 419.84 539.08 419.93 537.63
  Q 419.95 537.16 420.37 536.93
  Q 421.85 536.12 421.93 534.61
  Q 421.95 534.13 422.38 533.90
  Q 423.74 533.17 424.03 531.78
  Q 424.13 531.28 424.49 530.92
  Q 426.26 529.16 426.96 526.64
  Q 427.11 526.10 427.58 525.81
  Q 428.84 525.02 428.93 523.63
  Q 428.96 523.16 429.37 522.93
  Q 430.85 522.12 430.93 520.62
  Q 430.95 520.13 431.38 519.90
  Q 432.74 519.17 433.03 517.77
  Q 433.13 517.30 433.47 516.97
  Q 435.19 515.28 435.89 512.75
  Q 436.11 511.94 437.26 511.15
  Q 437.67 510.87 437.77 510.38
  Q 438.11 508.79 439.54 507.89
  Q 439.91 507.66 439.87 507.22
  Q 439.70 505.37 441.24 504.17
  Q 441.62 503.88 441.79 503.42
  Q 442.59 501.34 444.44 499.98
  Q 444.88 499.65 444.88 499.10
  L 444.88 498.72
  A 0.85 0.85 0.0 0 1 445.28 498.00
  Q 446.61 497.20 447.10 495.72
  Q 447.26 495.21 447.65 494.83
  Q 448.67 493.83 449.31 492.05
  Q 449.79 490.72 451.11 489.17
  Q 451.67 488.50 452.27 487.19
  Q 452.94 485.70 454.39 485.60
  A 1.38 1.38 0.0 0 1 455.86 486.92
  L 456.54 502.23
  Z"
/>
<path fill="#b58077" d="
  M 892.28 522.68
  Q 894.33 523.18 895.97 525.80
  Q 895.39 525.76 895.56 525.94
  L 892.28 522.68
  Z"
/>
<path fill="#ce988d" d="
  M 895.97 525.80
  Q 898.56 527.66 900.22 530.39
  L 895.56 525.94
  Q 895.39 525.76 895.97 525.80
  Z"
/>
<path fill="#b58077" d="
  M 904.92 535.43
  Q 906.60 536.45 907.30 538.53
  Q 907.10 538.59 906.90 538.64
  Q 905.58 537.40 904.92 535.43
  Z"
/>
<path fill="#c4b4b1" d="
  M 906.90 538.64
  Q 907.10 538.59 907.30 538.53
  Q 908.71 539.83 909.28 541.56
  Q 907.53 540.72 906.90 538.64
  Z"
/>
<path fill="#1e2249" d="
  M 456.70 570.80
  L 457.01 678.96
  Q 456.77 678.94 456.70 678.55
  Q 456.69 678.49 456.64 678.53
  L 456.31 678.76
  Q 455.83 679.11 456.07 678.56
  Q 456.54 677.52 456.08 676.43
  Q 455.74 675.63 455.36 676.41
  L 453.79 679.67
  Q 453.59 680.09 453.22 680.38
  Q 450.81 682.25 450.34 685.37
  Q 450.25 685.97 449.76 686.34
  Q 447.65 687.93 446.97 690.55
  A 1.00 0.98 -8.7 0 1 446.52 691.15
  Q 445.14 691.95 445.07 693.41
  Q 445.05 693.84 444.66 694.05
  Q 443.15 694.86 443.07 696.39
  Q 443.04 696.87 442.62 697.10
  Q 441.32 697.79 441.00 699.09
  Q 440.87 699.59 440.52 699.98
  Q 438.79 701.86 438.00 704.42
  A 1.43 1.42 80.8 0 1 437.50 705.12
  Q 436.35 705.95 435.91 707.27
  Q 435.72 707.85 435.30 708.27
  Q 433.64 709.92 433.11 712.24
  Q 433.00 712.76 432.58 713.09
  Q 430.21 714.93 429.22 717.78
  Q 429.03 718.33 428.65 718.76
  Q 426.80 720.85 425.93 723.57
  Q 425.80 723.95 425.46 724.16
  Q 424.20 724.93 424.06 726.39
  Q 424.02 726.86 423.61 727.08
  Q 422.15 727.89 422.07 729.39
  Q 422.04 729.87 421.61 730.10
  Q 420.27 730.82 419.98 732.19
  Q 419.87 732.68 419.51 733.04
  Q 417.73 734.84 417.02 737.39
  Q 416.87 737.92 416.41 738.21
  Q 415.15 739.00 415.07 740.38
  Q 415.04 740.87 414.61 741.10
  Q 413.28 741.82 412.97 743.19
  Q 412.86 743.69 412.50 744.05
  Q 410.73 745.85 410.02 748.39
  Q 409.87 748.92 409.41 749.21
  Q 408.15 750.00 408.07 751.38
  Q 408.04 751.87 407.61 752.10
  Q 406.28 752.82 405.97 754.19
  Q 405.86 754.69 405.50 755.05
  Q 403.73 756.85 403.02 759.39
  Q 402.87 759.92 402.41 760.21
  Q 401.15 761.00 401.07 762.38
  Q 401.04 762.87 400.61 763.10
  Q 399.28 763.82 398.97 765.19
  Q 398.86 765.69 398.50 766.05
  Q 396.73 767.85 396.02 770.39
  Q 395.87 770.92 395.41 771.21
  Q 394.17 771.99 394.07 773.34
  Q 394.04 773.82 393.62 774.04
  Q 392.18 774.82 391.87 776.37
  Q 391.78 776.82 391.39 777.07
  Q 390.08 777.91 389.76 779.36
  Q 389.66 779.83 389.24 780.07
  C 387.99 780.78 387.99 781.87 387.36 782.71
  Q 386.44 783.94 385.53 785.22
  Q 384.88 786.13 384.02 787.89
  Q 383.19 789.61 382.02 791.11
  Q 381.21 792.16 380.50 793.69
  Q 379.84 795.13 378.83 796.36
  Q 378.30 796.99 378.14 796.19
  L 377.34 792.30
  A 0.19 0.18 62.2 0 1 377.38 792.16
  Q 377.71 791.85 377.58 791.61
  Q 377.26 791.00 377.38 791.73
  Q 377.69 793.66 377.21 795.43
  Q 376.50 798.06 376.45 798.91
  Q 375.77 810.83 375.60 822.71
  L 375.63 702.48
  L 376.52 665.00
  A 0.13 0.13 0.0 0 1 376.65 664.87
  Q 378.86 664.90 376.85 664.86
  Q 376.78 664.86 376.79 664.92
  Q 377.42 671.68 377.80 678.72
  A 0.53 0.53 0.0 0 0 378.78 678.98
  L 391.04 660.01
  Q 391.29 659.62 391.58 659.27
  Q 393.29 657.20 394.23 654.63
  Q 394.40 654.17 394.80 653.88
  Q 395.94 653.06 396.14 651.74
  Q 396.21 651.25 396.62 650.98
  Q 397.76 650.23 398.14 649.08
  Q 398.29 648.62 398.60 648.24
  Q 400.29 646.19 401.24 643.65
  Q 401.42 643.19 401.80 642.89
  Q 402.90 642.03 403.20 640.71
  Q 403.32 640.21 403.74 639.92
  Q 404.93 639.10 405.14 637.74
  Q 405.21 637.25 405.62 636.98
  Q 406.73 636.25 407.09 635.14
  Q 407.24 634.68 407.55 634.30
  Q 409.28 632.23 410.23 629.63
  Q 410.40 629.17 410.80 628.88
  Q 411.94 628.06 412.14 626.74
  Q 412.21 626.25 412.62 625.98
  Q 413.76 625.23 414.14 624.08
  Q 414.29 623.62 414.60 623.24
  Q 416.30 621.18 417.26 618.61
  Q 417.43 618.15 417.83 617.86
  Q 418.94 617.05 419.14 615.74
  Q 419.21 615.25 419.62 614.98
  Q 420.76 614.23 421.14 613.08
  Q 421.29 612.62 421.60 612.24
  Q 423.30 610.18 424.26 607.61
  Q 424.43 607.15 424.83 606.86
  Q 425.94 606.05 426.14 604.74
  Q 426.21 604.25 426.62 603.98
  Q 427.76 603.23 428.14 602.08
  Q 428.29 601.62 428.60 601.24
  Q 430.29 599.19 431.24 596.65
  Q 431.42 596.19 431.80 595.89
  Q 432.90 595.03 433.20 593.71
  Q 433.32 593.21 433.74 592.92
  Q 434.93 592.10 435.14 590.74
  Q 435.21 590.25 435.62 589.98
  Q 436.73 589.25 437.09 588.14
  Q 437.24 587.68 437.55 587.30
  Q 439.27 585.24 440.21 582.68
  Q 440.38 582.21 440.77 581.91
  Q 441.90 581.04 442.21 579.71
  Q 442.32 579.21 442.74 578.92
  Q 443.97 578.08 444.15 576.67
  Q 444.21 576.17 444.64 575.90
  Q 445.78 575.19 446.15 574.07
  Q 446.30 573.61 446.61 573.23
  Q 448.29 571.20 449.21 568.68
  Q 449.38 568.21 449.77 567.91
  Q 450.81 567.11 451.15 565.93
  Q 451.29 565.46 451.63 565.11
  Q 453.42 563.29 454.36 560.00
  A 0.92 0.92 0.0 0 1 456.16 560.20
  L 456.70 570.80
  Z"
/>
<path fill="#b58077" d="
  M 1012.29 624.47
  L 1010.76 630.53
  L 1012.29 624.47
  Z"
/>
<path fill="#b58077" d="
  M 912.31 636.38
  Q 911.80 639.06 909.45 641.51
  L 912.31 636.38
  Z"
/>
<path fill="#c4b4b1" d="
  M 1006.68 643.35
  Q 1006.65 646.36 1004.77 648.61
  L 1006.68 643.35
  Z"
/>
<path fill="#c4b4b1" d="
  M 994.82 669.42
  Q 994.55 671.65 992.54 673.11
  L 994.82 669.42
  Z"
/>
<path fill="#151733" d="
  M 559.84 672.36
  Q 564.84 679.24 568.75 686.23
  Q 586.06 717.11 602.74 748.47
  Q 601.88 748.55 600.74 748.09
  Q 600.13 747.84 599.97 748.48
  Q 599.14 751.74 596.59 753.77
  Q 596.17 754.11 596.01 754.63
  Q 595.23 757.14 593.56 758.89
  Q 593.19 759.27 593.01 759.76
  Q 592.06 762.28 590.37 764.23
  Q 590.01 764.64 589.86 765.15
  Q 589.55 766.17 588.58 766.81
  Q 588.11 767.13 587.95 767.67
  Q 587.01 770.89 584.43 772.90
  Q 584.00 773.23 583.88 773.76
  Q 583.29 776.33 581.42 777.99
  Q 581.04 778.32 580.94 778.82
  Q 580.68 780.15 579.45 780.90
  Q 579.07 781.13 578.95 781.56
  Q 578.09 784.79 575.53 786.83
  A 1.85 1.82 -11.8 0 0 574.93 787.73
  Q 574.20 790.28 572.35 792.05
  Q 572.00 792.40 571.87 792.88
  Q 571.30 795.09 569.74 796.69
  Q 569.37 797.08 569.15 797.56
  Q 568.26 799.59 566.40 800.91
  A 1.16 1.10 81.3 0 0 565.96 801.54
  Q 565.28 804.10 563.48 806.00
  Q 563.17 806.33 563.01 806.75
  Q 562.06 809.28 560.37 811.23
  Q 560.01 811.64 559.86 812.15
  Q 559.53 813.24 558.45 813.90
  Q 558.07 814.13 557.95 814.56
  Q 557.09 817.79 554.52 819.83
  A 1.80 1.76 -12.5 0 0 553.93 820.73
  Q 553.18 823.43 551.20 825.16
  Q 550.77 825.53 550.90 826.08
  Q 551.03 826.67 550.53 826.89
  Q 549.96 827.13 549.92 827.74
  Q 549.84 829.32 548.29 829.65
  Q 547.95 829.73 548.24 829.93
  Q 549.46 830.78 548.65 832.63
  L 509.13 759.72
  L 506.65 753.69
  A 0.84 0.83 65.3 0 1 507.04 752.62
  Q 507.58 752.34 507.34 751.98
  Q 506.97 751.41 507.53 751.03
  Q 508.64 750.28 509.03 749.13
  Q 509.19 748.65 509.52 748.27
  Q 511.23 746.23 512.15 743.68
  Q 512.33 743.20 512.73 742.89
  Q 513.84 742.05 514.13 740.76
  Q 514.25 740.25 514.68 739.93
  Q 515.85 739.07 516.14 737.72
  Q 516.26 737.19 516.69 736.88
  Q 517.71 736.15 518.10 735.05
  Q 518.26 734.58 518.58 734.19
  Q 520.25 732.18 521.15 729.68
  Q 521.33 729.20 521.73 728.89
  Q 522.71 728.14 523.09 727.06
  Q 523.25 726.59 523.57 726.20
  Q 525.26 724.18 526.18 721.66
  Q 526.36 721.18 526.76 720.87
  Q 527.84 720.03 528.13 718.76
  Q 528.25 718.25 528.68 717.93
  Q 529.83 717.08 530.13 715.77
  Q 530.25 715.25 530.68 714.93
  Q 531.66 714.20 532.03 713.13
  Q 532.19 712.65 532.52 712.26
  Q 534.23 710.23 535.15 707.68
  Q 535.33 707.20 535.73 706.89
  Q 536.84 706.05 537.13 704.76
  Q 537.25 704.25 537.68 703.93
  Q 538.83 703.08 539.13 701.77
  Q 539.25 701.25 539.68 700.93
  Q 540.66 700.20 541.03 699.13
  Q 541.19 698.65 541.52 698.26
  Q 543.23 696.23 544.15 693.69
  Q 544.33 693.20 544.73 692.89
  Q 545.83 692.05 546.13 690.77
  Q 546.25 690.25 546.68 689.93
  Q 547.77 689.12 548.10 687.90
  Q 548.23 687.41 548.59 687.06
  Q 550.21 685.46 550.88 683.29
  C 551.26 682.08 551.77 681.77 552.56 680.91
  Q 552.90 680.54 553.03 680.05
  Q 553.32 678.86 554.43 678.12
  Q 554.73 677.92 554.87 677.59
  L 556.22 674.44
  Q 556.40 674.02 556.80 673.80
  Q 558.06 673.11 558.10 671.80
  Q 558.13 670.84 558.55 671.70
  Q 558.94 672.52 558.48 673.42
  Q 558.13 674.10 558.66 673.56
  L 559.84 672.36
  Z"
/>
<path fill="#c4b4b1" d="
  M 869.29 674.90
  Q 866.42 676.79 863.07 677.09
  Q 862.91 676.82 862.52 676.88
  L 869.29 674.90
  Z"
/>
<path fill="#b58077" d="
  M 862.52 676.88
  Q 862.91 676.82 863.07 677.09
  Q 861.92 677.87 860.47 678.12
  L 858.49 678.15
  Q 858.37 678.06 858.25 677.97
  L 862.52 676.88
  Z"
/>
<path fill="#c4b4b1" d="
  M 858.25 677.97
  Q 858.37 678.06 858.49 678.15
  L 854.46 679.00
  L 843.52 679.21
  L 814.48 679.05
  L 779.95 679.38
  Q 778.36 679.71 777.03 679.02
  Q 803.48 678.78 829.91 678.72
  C 839.10 678.70 848.79 678.20 858.25 677.97
  Z"
/>
<path fill="#75605e" d="
  M 858.49 678.15
  L 860.47 678.12
  Q 857.62 679.32 854.46 679.00
  L 858.49 678.15
  Z"
/>
<path fill="#75605e" d="
  M 814.48 679.05
  L 804.23 679.75
  L 779.95 679.38
  L 814.48 679.05
  Z"
/>
<path fill="#5c3a3e" d="
  M 814.48 679.05
  L 843.52 679.21
  L 804.23 679.75
  L 814.48 679.05
  Z"
/>
<path fill="#b58077" d="
  M 776.24 684.92
  Q 778.12 686.33 778.08 688.48
  Q 776.59 687.15 776.24 684.92
  Z"
/>
<path fill="#ce988d" d="
  M 778.08 688.48
  L 780.65 693.06
  Q 778.61 691.56 778.08 688.48
  Z"
/>
<path fill="#ce988d" d="
  M 780.65 693.06
  Q 783.00 695.87 784.00 699.70
  Q 781.50 696.73 780.65 693.06
  Z"
/>
<path fill="#b58077" d="
  M 784.95 701.38
  Q 786.79 702.66 787.25 705.62
  Q 785.60 703.85 784.95 701.38
  Z"
/>
<path fill="#ce988d" d="
  M 969.56 703.43
  Q 968.22 705.95 965.50 707.54
  L 969.56 703.43
  Z"
/>
<path fill="#b58077" d="
  M 789.94 710.41
  Q 791.99 711.99 792.56 715.07
  Q 790.77 713.02 789.94 710.41
  Z"
/>
<path fill="#b58077" d="
  M 801.92 731.81
  L 797.71 724.06
  Q 800.36 727.26 801.92 731.81
  Z"
/>
<path fill="#c4b4b1" d="
  M 943.33 725.38
  Q 941.88 727.57 938.47 728.61
  L 943.33 725.38
  Z"
/>
<path fill="#c4b4b1" d="
  M 934.84 730.90
  Q 931.04 734.07 926.78 736.03
  Q 925.75 736.50 925.26 736.01
  L 934.84 730.90
  Z"
/>
<path fill="#b58077" d="
  M 801.92 731.81
  Q 803.95 733.11 804.51 736.10
  L 801.92 731.81
  Z"
/>
<path fill="#ce988d" d="
  M 924.41 736.57
  Q 919.53 740.46 913.53 740.83
  C 911.61 740.95 910.94 741.70 909.39 742.64
  C 911.73 738.32 914.96 740.85 918.58 739.07
  Q 921.38 737.70 924.41 736.57
  Z"
/>
<path fill="#11132b" d="
  M 602.74 748.47
  L 627.07 792.91
  Q 624.53 792.23 624.50 790.75
  Q 624.49 790.30 624.04 790.30
  Q 623.89 790.31 623.74 790.18
  Q 623.44 789.93 623.34 790.30
  Q 622.87 791.98 621.53 793.10
  Q 621.20 793.37 621.10 793.77
  Q 620.44 796.31 618.60 798.08
  Q 618.25 798.42 618.10 798.88
  Q 617.05 802.09 614.43 804.12
  Q 614.12 804.36 614.12 804.75
  L 614.11 805.06
  Q 614.11 805.48 613.81 805.79
  L 609.53 810.11
  Q 609.20 810.45 609.07 810.91
  Q 608.40 813.33 606.64 815.05
  Q 606.30 815.39 606.17 815.86
  Q 605.83 817.09 604.77 817.91
  Q 604.38 818.22 604.21 818.68
  Q 603.27 821.24 601.55 823.30
  Q 601.24 823.68 601.09 824.14
  Q 600.73 825.25 599.62 825.98
  Q 599.21 826.25 599.14 826.74
  Q 598.94 828.10 597.74 828.92
  Q 597.32 829.21 597.20 829.71
  Q 596.89 831.09 595.70 831.97
  Q 595.31 832.25 595.18 832.72
  Q 594.67 834.44 593.62 835.85
  Q 592.14 837.83 591.77 838.70
  Q 590.87 840.85 590.15 843.10
  A 2.04 2.03 -13.8 0 1 589.65 843.92
  Q 587.89 845.68 587.05 848.14
  Q 586.87 848.67 586.48 849.08
  L 584.51 851.17
  Q 584.18 851.52 584.05 851.98
  Q 583.36 854.36 581.62 856.08
  Q 581.27 856.42 581.16 856.89
  Q 580.87 858.02 579.89 858.80
  Q 579.53 859.08 579.33 859.49
  Q 578.79 860.60 578.30 861.74
  Q 577.91 862.64 576.95 863.66
  Q 575.37 865.34 574.09 868.23
  Q 573.42 869.73 571.29 870.84
  Q 570.89 871.05 570.97 871.50
  L 571.40 873.85
  L 548.65 832.63
  Q 549.46 830.78 548.24 829.93
  Q 547.95 829.73 548.29 829.65
  Q 549.84 829.32 549.92 827.74
  Q 549.96 827.13 550.53 826.89
  Q 551.03 826.67 550.90 826.08
  Q 550.77 825.53 551.20 825.16
  Q 553.18 823.43 553.93 820.73
  A 1.80 1.76 -12.5 0 1 554.52 819.83
  Q 557.09 817.79 557.95 814.56
  Q 558.07 814.13 558.45 813.90
  Q 559.53 813.24 559.86 812.15
  Q 560.01 811.64 560.37 811.23
  Q 562.06 809.28 563.01 806.75
  Q 563.17 806.33 563.48 806.00
  Q 565.28 804.10 565.96 801.54
  A 1.16 1.10 81.3 0 1 566.40 800.91
  Q 568.26 799.59 569.15 797.56
  Q 569.37 797.08 569.74 796.69
  Q 571.30 795.09 571.87 792.88
  Q 572.00 792.40 572.35 792.05
  Q 574.20 790.28 574.93 787.73
  A 1.85 1.82 -11.8 0 1 575.53 786.83
  Q 578.09 784.79 578.95 781.56
  Q 579.07 781.13 579.45 780.90
  Q 580.68 780.15 580.94 778.82
  Q 581.04 778.32 581.42 777.99
  Q 583.29 776.33 583.88 773.76
  Q 584.00 773.23 584.43 772.90
  Q 587.01 770.89 587.95 767.67
  Q 588.11 767.13 588.58 766.81
  Q 589.55 766.17 589.86 765.15
  Q 590.01 764.64 590.37 764.23
  Q 592.06 762.28 593.01 759.76
  Q 593.19 759.27 593.56 758.89
  Q 595.23 757.14 596.01 754.63
  Q 596.17 754.11 596.59 753.77
  Q 599.14 751.74 599.97 748.48
  Q 600.13 747.84 600.74 748.09
  Q 601.88 748.55 602.74 748.47
  Z"
/>
<path fill="#b58077" d="
  M 815.91 757.44
  Q 817.87 759.52 818.77 762.36
  Q 816.73 760.25 815.91 757.44
  Z"
/>
<path fill="#ce988d" d="
  M 819.36 763.56
  L 821.14 766.54
  Q 819.72 766.43 819.36 763.56
  Z"
/>
<path fill="#0d0f22" d="
  M 627.07 792.91
  L 670.36 871.85
  Q 669.60 872.08 669.14 871.90
  Q 668.68 871.72 668.75 871.24
  Q 668.86 870.40 667.95 870.28
  A 0.48 0.48 0.0 0 1 667.59 869.58
  L 667.92 868.94
  Q 668.01 868.76 667.82 868.72
  Q 666.54 868.40 665.42 868.91
  Q 664.96 869.13 664.92 869.64
  Q 664.84 871.12 663.37 871.92
  Q 662.95 872.16 662.93 872.63
  Q 662.84 874.07 661.47 874.87
  Q 661.07 875.10 660.96 875.55
  Q 660.10 878.78 657.55 880.82
  Q 657.11 881.17 656.95 881.72
  Q 656.23 884.20 654.49 885.95
  Q 654.13 886.31 654.02 886.81
  Q 653.72 888.18 652.38 888.90
  Q 651.95 889.13 651.93 889.61
  Q 651.85 891.11 650.39 891.91
  Q 649.98 892.14 649.95 892.62
  Q 649.85 894.12 648.34 894.92
  Q 647.94 895.14 647.87 895.58
  Q 647.18 899.54 643.61 900.90
  Q 643.09 901.09 642.95 901.62
  Q 642.22 904.42 640.17 906.19
  Q 639.79 906.52 639.88 907.01
  Q 639.99 907.56 639.61 907.84
  Q 639.08 908.23 639.02 908.30
  Q 637.55 910.04 636.80 912.31
  Q 636.65 912.78 636.27 913.10
  Q 633.86 915.13 632.86 918.20
  Q 632.71 918.69 632.33 919.04
  Q 631.36 919.93 630.83 921.08
  Q 630.61 921.55 630.27 921.95
  Q 628.47 924.12 627.69 926.84
  A 1.10 1.07 89.2 0 1 627.01 927.56
  Q 625.83 927.98 625.87 929.13
  Q 625.88 929.63 625.47 929.91
  Q 624.29 930.72 623.85 931.95
  Q 623.69 932.41 623.38 932.78
  Q 621.72 934.80 620.78 937.29
  Q 620.61 937.74 620.24 938.06
  Q 619.27 938.91 618.87 940.08
  Q 618.71 940.55 618.36 940.90
  Q 617.41 941.88 616.92 943.10
  Q 616.73 943.57 616.35 943.92
  Q 615.12 945.05 615.40 946.73
  A 0.27 0.27 0.0 0 1 615.01 947.01
  Q 614.89 946.95 614.77 946.89
  A 0.06 0.06 0.0 0 0 614.68 946.95
  L 614.89 947.95
  Q 614.95 948.23 614.69 948.37
  Q 613.86 948.79 613.78 949.75
  A 0.93 0.90 -65.9 0 0 614.05 950.49
  Q 615.04 951.48 614.26 952.58
  L 571.40 873.85
  L 570.97 871.50
  Q 570.89 871.05 571.29 870.84
  Q 573.42 869.73 574.09 868.23
  Q 575.37 865.34 576.95 863.66
  Q 577.91 862.64 578.30 861.74
  Q 578.79 860.60 579.33 859.49
  Q 579.53 859.08 579.89 858.80
  Q 580.87 858.02 581.16 856.89
  Q 581.27 856.42 581.62 856.08
  Q 583.36 854.36 584.05 851.98
  Q 584.18 851.52 584.51 851.17
  L 586.48 849.08
  Q 586.87 848.67 587.05 848.14
  Q 587.89 845.68 589.65 843.92
  A 2.04 2.03 -13.8 0 0 590.15 843.10
  Q 590.87 840.85 591.77 838.70
  Q 592.14 837.83 593.62 835.85
  Q 594.67 834.44 595.18 832.72
  Q 595.31 832.25 595.70 831.97
  Q 596.89 831.09 597.20 829.71
  Q 597.32 829.21 597.74 828.92
  Q 598.94 828.10 599.14 826.74
  Q 599.21 826.25 599.62 825.98
  Q 600.73 825.25 601.09 824.14
  Q 601.24 823.68 601.55 823.30
  Q 603.27 821.24 604.21 818.68
  Q 604.38 818.22 604.77 817.91
  Q 605.83 817.09 606.17 815.86
  Q 606.30 815.39 606.64 815.05
  Q 608.40 813.33 609.07 810.91
  Q 609.20 810.45 609.53 810.11
  L 613.81 805.79
  Q 614.11 805.48 614.11 805.06
  L 614.12 804.75
  Q 614.12 804.36 614.43 804.12
  Q 617.05 802.09 618.10 798.88
  Q 618.25 798.42 618.60 798.08
  Q 620.44 796.31 621.10 793.77
  Q 621.20 793.37 621.53 793.10
  Q 622.87 791.98 623.34 790.30
  Q 623.44 789.93 623.74 790.18
  Q 623.89 790.31 624.04 790.30
  Q 624.49 790.30 624.50 790.75
  Q 624.53 792.23 627.07 792.91
  Z"
/>
<path fill="#b58077" d="
  M 858.90 836.44
  Q 860.52 837.50 860.64 839.40
  Q 859.27 838.14 858.90 836.44
  Z"
/>
<path fill="#b58077" d="
  M 875.99 867.68
  Q 877.46 869.04 878.09 871.52
  Q 876.48 870.20 875.99 867.68
  Z"
/>
<path fill="#090b19" d="
  M 670.36 871.85
  L 692.94 912.60
  Q 690.09 912.14 689.70 908.78
  Q 689.64 908.28 689.17 908.46
  Q 687.88 908.95 687.90 910.29
  Q 687.90 910.75 687.50 910.99
  Q 686.07 911.82 685.85 913.37
  Q 685.77 913.89 685.32 914.17
  Q 684.09 914.94 683.88 916.19
  Q 683.79 916.72 683.35 917.04
  Q 682.11 917.94 681.82 919.37
  Q 681.72 919.87 681.30 920.17
  Q 680.08 921.00 679.91 921.74
  Q 679.32 924.29 677.47 926.02
  Q 677.06 926.40 676.99 926.95
  Q 676.87 927.90 675.96 928.42
  A 1.15 1.15 0.0 0 0 675.38 929.42
  L 675.38 932.25
  Q 675.38 932.86 674.78 932.84
  Q 672.39 932.74 671.92 935.26
  Q 671.78 936.02 670.60 936.78
  A 1.35 1.34 78.7 0 0 670.00 937.69
  Q 669.79 939.04 668.58 939.88
  Q 668.17 940.16 668.02 940.63
  Q 667.21 943.21 665.44 945.11
  Q 665.08 945.48 664.95 945.98
  Q 664.64 947.16 663.55 947.88
  Q 663.11 948.17 663.01 948.69
  Q 662.77 950.08 661.55 950.87
  Q 661.11 951.17 661.01 951.69
  Q 660.77 953.05 659.61 953.84
  Q 659.18 954.12 659.03 954.62
  Q 658.22 957.20 656.44 959.11
  Q 656.08 959.48 655.95 959.98
  Q 655.64 961.16 654.55 961.88
  Q 654.11 962.17 654.01 962.69
  Q 653.77 964.08 652.55 964.87
  Q 652.11 965.17 652.01 965.69
  Q 651.77 967.05 650.61 967.84
  Q 650.18 968.12 650.03 968.62
  Q 649.22 971.20 647.44 973.11
  Q 647.08 973.48 646.95 973.98
  Q 646.64 975.16 645.55 975.88
  Q 645.11 976.17 645.01 976.70
  Q 644.77 978.05 643.61 978.84
  Q 643.18 979.12 643.03 979.61
  Q 642.22 982.21 640.43 984.11
  Q 640.08 984.49 639.95 984.98
  Q 639.62 986.22 638.45 986.94
  Q 637.97 987.24 637.96 987.80
  Q 637.93 989.14 636.55 989.49
  Q 636.05 989.61 636.06 990.13
  L 636.06 992.19
  L 614.26 952.58
  Q 615.04 951.48 614.05 950.49
  A 0.93 0.90 -65.9 0 1 613.78 949.75
  Q 613.86 948.79 614.69 948.37
  Q 614.95 948.23 614.89 947.95
  L 614.68 946.95
  A 0.06 0.06 0.0 0 1 614.77 946.89
  Q 614.89 946.95 615.01 947.01
  A 0.27 0.27 0.0 0 0 615.40 946.73
  Q 615.12 945.05 616.35 943.92
  Q 616.73 943.57 616.92 943.10
  Q 617.41 941.88 618.36 940.90
  Q 618.71 940.55 618.87 940.08
  Q 619.27 938.91 620.24 938.06
  Q 620.61 937.74 620.78 937.29
  Q 621.72 934.80 623.38 932.78
  Q 623.69 932.41 623.85 931.95
  Q 624.29 930.72 625.47 929.91
  Q 625.88 929.63 625.87 929.13
  Q 625.83 927.98 627.01 927.56
  A 1.10 1.07 89.2 0 0 627.69 926.84
  Q 628.47 924.12 630.27 921.95
  Q 630.61 921.55 630.83 921.08
  Q 631.36 919.93 632.33 919.04
  Q 632.71 918.69 632.86 918.20
  Q 633.86 915.13 636.27 913.10
  Q 636.65 912.78 636.80 912.31
  Q 637.55 910.04 639.02 908.30
  Q 639.08 908.23 639.61 907.84
  Q 639.99 907.56 639.88 907.01
  Q 639.79 906.52 640.17 906.19
  Q 642.22 904.42 642.95 901.62
  Q 643.09 901.09 643.61 900.90
  Q 647.18 899.54 647.87 895.58
  Q 647.94 895.14 648.34 894.92
  Q 649.85 894.12 649.95 892.62
  Q 649.98 892.14 650.39 891.91
  Q 651.85 891.11 651.93 889.61
  Q 651.95 889.13 652.38 888.90
  Q 653.72 888.18 654.02 886.81
  Q 654.13 886.31 654.49 885.95
  Q 656.23 884.20 656.95 881.72
  Q 657.11 881.17 657.55 880.82
  Q 660.10 878.78 660.96 875.55
  Q 661.07 875.10 661.47 874.87
  Q 662.84 874.07 662.93 872.63
  Q 662.95 872.16 663.37 871.92
  Q 664.84 871.12 664.92 869.64
  Q 664.96 869.13 665.42 868.91
  Q 666.54 868.40 667.82 868.72
  Q 668.01 868.76 667.92 868.94
  L 667.59 869.58
  A 0.48 0.48 0.0 0 0 667.95 870.28
  Q 668.86 870.40 668.75 871.24
  Q 668.68 871.72 669.14 871.90
  Q 669.60 872.08 670.36 871.85
  Z"
/>
<path fill="#ce988d" d="
  M 892.73 897.15
  L 894.99 901.65
  Q 892.98 899.82 892.73 897.15
  Z"
/>
<path fill="#b58077" d="
  M 895.74 902.65
  L 899.87 910.65
  Q 896.99 907.21 895.74 902.65
  Z"
/>
<path fill="#070814" d="
  M 692.94 912.60
  L 712.86 949.13
  Q 711.94 951.28 711.23 951.99
  Q 708.31 954.92 707.04 958.91
  Q 706.89 959.38 706.55 959.73
  Q 704.61 961.75 703.75 964.49
  Q 703.63 964.88 703.31 965.13
  Q 701.34 966.63 700.83 967.96
  Q 700.29 969.39 699.38 970.01
  Q 699.02 970.26 698.91 970.70
  Q 698.28 973.17 696.51 974.89
  Q 696.13 975.26 695.96 975.77
  Q 695.16 978.24 693.48 979.97
  Q 693.13 980.34 693.01 980.84
  Q 692.71 982.19 691.38 982.90
  Q 690.95 983.13 690.93 983.61
  Q 690.85 985.12 689.37 985.93
  Q 688.95 986.16 688.93 986.63
  Q 688.84 988.02 687.58 988.81
  Q 687.11 989.10 686.96 989.64
  Q 686.26 992.16 684.49 993.92
  Q 684.13 994.28 684.03 994.78
  Q 683.74 996.17 682.38 996.90
  Q 681.95 997.13 681.93 997.61
  Q 681.85 999.11 680.39 999.92
  Q 679.98 1000.14 679.94 1000.61
  Q 679.80 1002.16 678.38 1002.93
  Q 678.02 1003.13 677.94 1003.53
  Q 677.41 1006.14 675.42 1008.00
  Q 675.03 1008.36 674.87 1008.87
  Q 673.89 1011.99 671.36 1014.05
  A 0.59 0.58 -63.2 0 0 671.70 1015.09
  L 687.99 1015.74
  L 649.26 1015.82
  Q 648.74 1015.82 648.50 1015.37
  L 636.06 992.19
  L 636.06 990.13
  Q 636.05 989.61 636.55 989.49
  Q 637.93 989.14 637.96 987.80
  Q 637.97 987.24 638.45 986.94
  Q 639.62 986.22 639.95 984.98
  Q 640.08 984.49 640.43 984.11
  Q 642.22 982.21 643.03 979.61
  Q 643.18 979.12 643.61 978.84
  Q 644.77 978.05 645.01 976.70
  Q 645.11 976.17 645.55 975.88
  Q 646.64 975.16 646.95 973.98
  Q 647.08 973.48 647.44 973.11
  Q 649.22 971.20 650.03 968.62
  Q 650.18 968.12 650.61 967.84
  Q 651.77 967.05 652.01 965.69
  Q 652.11 965.17 652.55 964.87
  Q 653.77 964.08 654.01 962.69
  Q 654.11 962.17 654.55 961.88
  Q 655.64 961.16 655.95 959.98
  Q 656.08 959.48 656.44 959.11
  Q 658.22 957.20 659.03 954.62
  Q 659.18 954.12 659.61 953.84
  Q 660.77 953.05 661.01 951.69
  Q 661.11 951.17 661.55 950.87
  Q 662.77 950.08 663.01 948.69
  Q 663.11 948.17 663.55 947.88
  Q 664.64 947.16 664.95 945.98
  Q 665.08 945.48 665.44 945.11
  Q 667.21 943.21 668.02 940.63
  Q 668.17 940.16 668.58 939.88
  Q 669.79 939.04 670.00 937.69
  A 1.35 1.34 78.7 0 1 670.60 936.78
  Q 671.78 936.02 671.92 935.26
  Q 672.39 932.74 674.78 932.84
  Q 675.38 932.86 675.38 932.25
  L 675.38 929.42
  A 1.15 1.15 0.0 0 1 675.96 928.42
  Q 676.87 927.90 676.99 926.95
  Q 677.06 926.40 677.47 926.02
  Q 679.32 924.29 679.91 921.74
  Q 680.08 921.00 681.30 920.17
  Q 681.72 919.87 681.82 919.37
  Q 682.11 917.94 683.35 917.04
  Q 683.79 916.72 683.88 916.19
  Q 684.09 914.94 685.32 914.17
  Q 685.77 913.89 685.85 913.37
  Q 686.07 911.82 687.50 910.99
  Q 687.90 910.75 687.90 910.29
  Q 687.88 908.95 689.17 908.46
  Q 689.64 908.28 689.70 908.78
  Q 690.09 912.14 692.94 912.60
  Z"
/>
<path fill="#b58077" d="
  M 905.04 920.13
  L 908.99 927.61
  Q 906.13 924.33 905.04 920.13
  Z"
/>
<path fill="#ce988d" d="
  M 911.05 931.39
  Q 912.02 932.31 912.01 933.60
  Q 910.64 932.99 911.05 931.39
  Z"
/>
<path fill="#b58077" d="
  M 914.61 937.74
  Q 915.94 938.91 916.31 940.83
  Q 914.90 939.90 914.61 937.74
  Z"
/>
<path fill="#ce988d" d="
  M 918.20 944.39
  L 922.67 951.79
  Q 919.30 948.47 918.20 944.39
  Z"
/>
<path fill="#04050e" d="
  M 712.86 949.13
  Q 728.42 977.46 743.85 1005.51
  C 745.54 1008.59 746.99 1012.01 748.71 1015.28
  Q 748.99 1015.80 748.40 1015.80
  L 687.99 1015.74
  L 671.70 1015.09
  A 0.59 0.58 -63.2 0 1 671.36 1014.05
  Q 673.89 1011.99 674.87 1008.87
  Q 675.03 1008.36 675.42 1008.00
  Q 677.41 1006.14 677.94 1003.53
  Q 678.02 1003.13 678.38 1002.93
  Q 679.80 1002.16 679.94 1000.61
  Q 679.98 1000.14 680.39 999.92
  Q 681.85 999.11 681.93 997.61
  Q 681.95 997.13 682.38 996.90
  Q 683.74 996.17 684.03 994.78
  Q 684.13 994.28 684.49 993.92
  Q 686.26 992.16 686.96 989.64
  Q 687.11 989.10 687.58 988.81
  Q 688.84 988.02 688.93 986.63
  Q 688.95 986.16 689.37 985.93
  Q 690.85 985.12 690.93 983.61
  Q 690.95 983.13 691.38 982.90
  Q 692.71 982.19 693.01 980.84
  Q 693.13 980.34 693.48 979.97
  Q 695.16 978.24 695.96 975.77
  Q 696.13 975.26 696.51 974.89
  Q 698.28 973.17 698.91 970.70
  Q 699.02 970.26 699.38 970.01
  Q 700.29 969.39 700.83 967.96
  Q 701.34 966.63 703.31 965.13
  Q 703.63 964.88 703.75 964.49
  Q 704.61 961.75 706.55 959.73
  Q 706.89 959.38 707.04 958.91
  Q 708.31 954.92 711.23 951.99
  Q 711.94 951.28 712.86 949.13
  Z"
/>
<path fill="#ce988d" d="
  M 922.93 952.65
  Q 924.80 954.62 925.53 957.10
  Q 923.59 955.38 922.93 952.65
  Z"
/>
<path fill="#b58077" d="
  M 931.94 969.20
  Q 933.68 970.64 933.99 973.12
  Q 932.37 971.34 931.94 969.20
  Z"
/>
<path fill="#ce988d" d="
  M 934.97 974.71
  L 939.12 982.56
  Q 936.43 979.17 934.97 974.71
  Z"
/>
</svg>
